<svg width="100" height="100" viewBox="0 0 100 100" fill="none" xmlns="http://www.w3.org/2000/svg">
<g clip-path="url(#clip0_1_344)">
<path d="M50 0C77.6142 0 100 22.3858 100 50C100 57.1687 98.4899 63.9844 95.7726 70.1482C95.616 70.5036 95.5605 70.8959 95.6191 71.2798L99.5898 97.3111C99.7933 98.6449 98.6449 99.7933 97.3111 99.5898L71.2798 95.6191C70.8959 95.5605 70.5036 95.616 70.1482 95.7726C63.9844 98.4899 57.1687 100 50 100C22.3858 100 0 77.6142 0 50C0 22.3858 22.3858 0 50 0Z" fill="#EEEFEE"/>
<path d="M44.4688 34.2968C44.4688 29.9468 47.6563 28.9218 49.4375 28.9531C53.0563 28.9531 54.061 31.9666 54.3594 33.5702C54.7304 35.5643 54.3673 40.3338 54.2007 42.5235L54.1959 42.5859C54.434 42.5302 54.6911 42.4999 54.9688 42.4999H60.755C63.095 42.4999 65 44.4049 65 46.7449C65 47.954 64.612 49.047 63.8519 49.821C65.4184 50.5121 66.5 51.9627 66.5 53.6355C66.5 55.1699 65.8059 56.5173 64.4535 57.2631C65.6886 58.0295 66.5 59.3116 66.5 60.7605C66.5 62.4221 65.686 63.8644 64.1036 64.561C64.6651 65.1399 65 66.0015 65 67.2523C65 69.3208 63.5469 71.0047 60.755 71.0047H54.9688C54.9006 71.0047 54.8335 71.0031 54.7675 70.9999H50.0703C34.4141 71.2577 33.5 61.1093 33.5 56.9843C33.5 49.2502 36.9469 46.9511 40.0109 44.9074C41.4595 43.9412 42.8226 43.0321 43.6953 41.6327C44.4276 40.4586 44.4688 39.3827 44.4688 34.2968Z" fill="#0071E3"/>
<path d="M54.5 42.5C52.9687 42.5469 48.5 43.3906 48.5 46.9531C48.5 48.8281 49.2031 49.8828 50.0469 50.4688C49.2031 50.8438 48.4531 52.2359 48.4531 53.9609C48.4531 55.8828 50.0469 57.2891 50.0469 57.2891C50.0469 57.2891 48.4531 58.8359 48.4531 60.6875C48.4531 62.0854 49.066 63.1169 50.0469 63.82C49.5156 64.1196 48.4531 65.1594 48.4531 66.9219C48.4531 69.0236 50.4154 70.7841 54.2587 70.9417C52.3862 70.595 51.4765 68.8793 51.4765 67.2524C51.4765 66.7146 51.6778 65.8513 52.1771 65.0882H60.5C60.9142 65.0882 61.25 64.7524 61.25 64.3382C61.25 63.924 60.9142 63.5882 60.5 63.5882H52.3834C51.7757 62.793 51.4765 61.762 51.4765 60.7606C51.4765 60.1376 51.711 59.1282 52.2956 58.25H60.5C60.9142 58.25 61.25 57.9142 61.25 57.5C61.25 57.0858 60.9142 56.75 60.5 56.75H52.626C51.8552 55.9264 51.4765 54.7622 51.4765 53.6356C51.4765 53.0998 51.65 52.2782 52.0704 51.5H60.5C60.9142 51.5 61.25 51.1642 61.25 50.75C61.25 50.3358 60.9142 50 60.5 50H52.7401C51.8951 49.1053 51.4765 47.7746 51.4765 46.745C51.4765 45.53 52.14 42.8454 54.5003 42.5304L54.5 42.5Z" fill="#21568C"/>
</g>
<defs>
<clipPath id="clip0_1_344">
<rect width="100" height="100" fill="white"/>
</clipPath>
</defs>
</svg>
