<svg width="100" height="100" viewBox="0 0 100 100" fill="none" xmlns="http://www.w3.org/2000/svg">
<g clip-path="url(#clip0_1_355)">
<path d="M50 0C77.6142 0 100 22.3858 100 50C100 57.1687 98.4899 63.9844 95.7726 70.1482C95.616 70.5036 95.5605 70.8959 95.6191 71.2798L99.5898 97.3111C99.7933 98.6449 98.6449 99.7933 97.3111 99.5898L71.2798 95.6191C70.8959 95.5605 70.5036 95.616 70.1482 95.7726C63.9844 98.4899 57.1687 100 50 100C22.3858 100 0 77.6142 0 50C0 22.3858 22.3858 0 50 0Z" fill="#EEEFEE"/>
<path d="M63.8279 54.4999C63.8279 48.2299 63.8964 41.6899 63.8964 35.4199C63.8964 33.5299 62.3664 31.9999 60.4764 31.9999C57.8748 31.9999 56.7615 34.1679 56.8904 37.0741L55.3555 31.5898C54.9805 30.3124 53.375 28.742 51.1602 29.246C49.3452 29.741 48.2309 31.6113 48.7109 33.4413L49.8477 37.9999L45.5938 31.1679C44.6488 29.5329 42.3072 28.9875 40.4609 30.0546C38.8259 30.9996 38.2578 33.4999 39.2422 35.1523L44.832 44.3046C40.6016 45.7108 37.4729 48.6868 36.2539 52.1562C35.47 54.3871 37.3833 57.0572 39.7092 57.0572C42.6092 57.0572 43.1156 54.2962 44.8672 52.7889C45.9022 51.8889 47.3432 51.3611 48.8282 51.4061C51.7382 51.5111 54.2478 53.84 54.3828 56.765C54.5328 60.005 51.906 62.9139 48.711 62.9139C46.461 62.9139 43.8652 61.2698 43.0741 59.1757C42.5678 57.8355 40.981 57.0546 39.5468 57.0546C37.2518 57.0546 35.5389 59.4218 36.2188 61.7655C38.0488 67.2405 43.2854 70.7805 49.3904 70.7655C56.8754 70.7205 63.8279 64.0389 63.8279 54.4999Z" fill="#0071E3"/>
<path d="M50.609 29.4473C49.1274 30.1359 48.2817 31.8046 48.7109 33.4411L49.766 37.6721L52.25 41.7497L50.2344 32.8669C50.0208 32.006 49.8574 30.3003 50.609 29.4473Z" fill="#D67D00"/>
<path d="M39.8488 30.5257C38.6991 31.6703 38.393 33.7267 39.2422 35.1521L44.8249 44.2927C46.2318 43.8825 47.7544 43.8825 49.4609 43.8825C47.8906 43.531 46.1105 43.0706 45.0561 41.7497C44.0017 40.4287 40.3673 34.1325 40.3673 34.1325C39.8237 33.3139 39.1273 31.6558 39.8488 30.5257Z" fill="#D67D00"/>
<path d="M56.8818 36.7941C56.8443 34.572 57.5631 32.8245 59.1539 32.2244C58.5491 32.969 58.3804 34.2307 58.3906 34.9997L58.1094 41.7497L56.8818 36.7941Z" fill="#D67D00"/>
</g>
<defs>
<clipPath id="clip0_1_355">
<rect width="100" height="100" fill="white"/>
</clipPath>
</defs>
</svg>
