<svg width="1280" height="512" viewBox="0 0 1280 512" fill="none" xmlns="http://www.w3.org/2000/svg">
<g clip-path="url(#clip0_1_128)">
<rect width="1280" height="512" rx="40" fill="#2E2F33"/>
<g opacity="0.24">
<rect width="109.089" height="125.919" transform="matrix(0.997691 0.0679124 -0.0624542 0.998048 -6.13047 354.346)" fill="url(#paint0_linear_1_128)" fill-opacity="0.5"/>
<rect width="109.089" height="125.919" transform="matrix(-0.997691 -0.0679123 0.0624542 -0.998048 312.517 502.245)" fill="url(#paint1_linear_1_128)" fill-opacity="0.5"/>
<path d="M102.709 361.754L219.41 243.49L211.546 369.162L94.8444 487.427L102.709 361.754Z" fill="url(#paint2_linear_1_128)" fill-opacity="0.5"/>
<path d="M203.681 494.835L86.9792 613.1L94.8433 487.427L211.545 369.162L203.681 494.835Z" fill="url(#paint3_linear_1_128)" fill-opacity="0.5"/>
<path d="M-6.13023 354.346L227.273 117.817L219.408 243.49L102.707 361.754L-6.13023 354.346Z" fill="url(#paint4_linear_1_128)" fill-opacity="0.5"/>
<path d="M312.517 502.245L79.1144 738.774L86.9786 613.101L203.68 494.837L312.517 502.245Z" fill="url(#paint5_linear_1_128)" fill-opacity="0.5"/>
</g>
<g opacity="0.24">
<rect width="109.088" height="125.919" transform="matrix(0.99363 0.112696 -0.107328 0.994224 990.683 22.208)" fill="url(#paint6_linear_1_128)" fill-opacity="0.5"/>
<rect width="109.089" height="125.919" transform="matrix(-0.99363 -0.112696 0.107328 -0.994224 1302.35 184.282)" fill="url(#paint7_linear_1_128)" fill-opacity="0.5"/>
<path d="M1099.08 34.5012L1220.99 -78.3971L1207.47 46.795L1085.56 159.693L1099.08 34.5012Z" fill="url(#paint8_linear_1_128)" fill-opacity="0.5"/>
<path d="M1193.96 171.987L1072.05 284.885L1085.56 159.693L1207.47 46.7949L1193.96 171.987Z" fill="url(#paint9_linear_1_128)" fill-opacity="0.5"/>
<path d="M990.684 22.2075L1234.5 -203.589L1220.99 -78.3969L1099.08 34.5014L990.684 22.2075Z" fill="url(#paint10_linear_1_128)" fill-opacity="0.5"/>
<path d="M1302.35 184.283L1058.53 410.08L1072.05 284.888L1193.96 171.989L1302.35 184.283Z" fill="url(#paint11_linear_1_128)" fill-opacity="0.5"/>
</g>
<path d="M385.204 156.48C375.364 156.48 369.316 149.952 369.316 139.92C369.316 129.888 376.132 123.36 387.172 123.36C397.252 123.36 403.636 128.064 403.636 135.792V136.176H395.62V135.792C395.62 132.048 393.172 130.272 386.98 130.272C379.684 130.272 376.948 132.768 376.948 139.92C376.948 147.072 379.588 149.568 386.644 149.568C394.036 149.568 396.292 148.416 396.484 144.336H385.588V139.008H403.684V156H397.012V149.088H396.628C395.524 153.312 392.164 156.48 385.204 156.48ZM420.264 156.48C412.056 156.48 406.536 151.584 406.536 144C406.536 136.32 412.056 131.472 420.264 131.472C428.472 131.472 433.992 136.32 433.992 144C433.992 151.584 428.472 156.48 420.264 156.48ZM420.264 150.096C425.112 150.096 426.84 148.224 426.84 144C426.84 139.776 425.112 137.808 420.264 137.808C415.368 137.808 413.688 139.776 413.688 144C413.688 148.224 415.368 150.096 420.264 150.096ZM454.116 156H448.164C442.548 156 439.14 153.36 439.14 147.312V137.904H435.348V131.952H439.14V127.296H446.34V131.952H454.116V137.904H446.34V146.496C446.34 148.896 447.252 149.52 449.796 149.52H454.116V156ZM472.091 156.48C466.907 156.48 463.787 154.08 463.787 150.048C463.787 146.496 466.427 144.288 471.563 143.76L481.883 142.704V141.792C481.883 138.672 480.491 137.808 476.651 137.808C473.003 137.808 471.515 138.768 471.515 141.504V141.696H464.267V141.552C464.267 135.6 469.259 131.472 477.179 131.472C485.195 131.472 488.987 135.6 488.987 141.888V156H482.267V150.48H481.883C480.779 154.224 477.419 156.48 472.091 156.48ZM471.035 149.568C471.035 150.864 472.043 151.392 474.155 151.392C479.051 151.392 481.691 150.24 481.883 146.832L473.531 147.792C471.803 147.936 471.035 148.416 471.035 149.568ZM500.076 156H492.876V131.952H499.548V139.344H499.98C500.604 135.312 503.484 131.472 509.772 131.472C516.348 131.472 519.468 135.696 519.468 141.024V156H512.268V143.424C512.268 139.584 510.684 137.952 506.268 137.952C501.708 137.952 500.076 139.776 500.076 143.856V156ZM536.901 156H528.837L542.901 123.84H553.173L567.333 156H559.077L556.053 148.896H539.973L536.901 156ZM545.781 135.408L542.757 142.416H553.269L550.245 135.408L548.277 130.416H547.749L545.781 135.408ZM582.885 156H573.909L567.333 131.952H574.773L577.605 142.944L578.613 150.432H579.093L581.013 142.224L584.661 131.952H593.925L597.525 142.224L599.445 150.432H599.925L600.981 142.944L603.765 131.952H611.109L604.293 156H595.317L591.189 144.432L589.413 137.808H588.885L587.061 144.432L582.885 156ZM626.042 156.48C618.026 156.48 612.554 152.544 612.554 144C612.554 136.32 617.978 131.472 625.898 131.472C633.77 131.472 639.002 135.6 639.002 143.136C639.002 144 638.906 144.624 638.81 145.44H619.226C619.418 149.136 621.146 150.72 625.802 150.72C630.074 150.72 631.562 149.616 631.562 147.552V147.072H638.762V147.6C638.762 152.832 633.674 156.48 626.042 156.48ZM625.754 137.088C621.482 137.088 619.658 138.528 619.322 141.648H632.09C631.898 138.48 629.978 137.088 625.754 137.088ZM654.439 156.48C646.327 156.48 641.863 153.312 641.863 147.744V147.6H649.063V148.032C649.063 150.192 650.407 150.768 654.487 150.768C658.327 150.768 659.239 150.144 659.239 148.704C659.239 147.36 658.519 146.976 655.687 146.592L648.919 145.776C644.119 145.248 641.431 143.088 641.431 139.056C641.431 134.832 645.031 131.472 653.287 131.472C661.159 131.472 665.623 134.448 665.623 140.304V140.448H658.423V140.16C658.423 138.192 657.463 137.184 653.047 137.184C649.447 137.184 648.535 137.808 648.535 139.344C648.535 140.592 649.207 141.12 652.375 141.504L657.511 142.128C663.943 142.848 666.343 145.008 666.343 148.992C666.343 153.504 661.879 156.48 654.439 156.48ZM682.304 156.48C674.096 156.48 668.576 151.584 668.576 144C668.576 136.32 674.096 131.472 682.304 131.472C690.512 131.472 696.032 136.32 696.032 144C696.032 151.584 690.512 156.48 682.304 156.48ZM682.304 150.096C687.152 150.096 688.88 148.224 688.88 144C688.88 139.776 687.152 137.808 682.304 137.808C677.408 137.808 675.728 139.776 675.728 144C675.728 148.224 677.408 150.096 682.304 150.096ZM706.413 156H699.213V131.952H705.885V139.248H706.269C706.845 135.216 709.245 131.472 715.293 131.472C720.861 131.472 723.693 134.88 724.221 139.344H724.653C725.229 135.264 727.677 131.472 733.869 131.472C740.061 131.472 743.085 135.552 743.085 141.024V156H735.885V143.424C735.885 139.44 734.493 137.952 730.365 137.952C725.997 137.952 724.749 139.68 724.749 143.856V156H717.549V143.424C717.549 139.44 716.157 137.952 712.029 137.952C707.661 137.952 706.413 139.68 706.413 143.856V156ZM759.752 156.48C751.736 156.48 746.264 152.544 746.264 144C746.264 136.32 751.688 131.472 759.608 131.472C767.48 131.472 772.712 135.6 772.712 143.136C772.712 144 772.616 144.624 772.52 145.44H752.936C753.128 149.136 754.856 150.72 759.512 150.72C763.784 150.72 765.272 149.616 765.272 147.552V147.072H772.472V147.6C772.472 152.832 767.384 156.48 759.752 156.48ZM759.464 137.088C755.192 137.088 753.368 138.528 753.032 141.648H765.8C765.608 138.48 763.688 137.088 759.464 137.088ZM790.851 156H783.651V123.84H790.851V156ZM805.612 156.48C798.124 156.48 793.996 151.584 793.996 144C793.996 136.32 798.076 131.472 805.228 131.472C810.94 131.472 813.868 134.304 814.684 138.336H815.116V123.84H822.316V156H815.596V149.328H815.212C814.3 154.08 811.132 156.48 805.612 156.48ZM801.292 144C801.292 148.368 803.452 149.904 808.06 149.904C812.62 149.904 815.116 148.32 815.116 144.144V143.76C815.116 139.584 812.668 138.048 808.06 138.048C803.452 138.048 801.292 139.584 801.292 144ZM839.134 156.48C831.118 156.48 825.646 152.544 825.646 144C825.646 136.32 831.07 131.472 838.99 131.472C846.862 131.472 852.094 135.6 852.094 143.136C852.094 144 851.998 144.624 851.902 145.44H832.318C832.51 149.136 834.238 150.72 838.894 150.72C843.166 150.72 844.654 149.616 844.654 147.552V147.072H851.854V147.6C851.854 152.832 846.766 156.48 839.134 156.48ZM838.846 137.088C834.574 137.088 832.75 138.528 832.414 141.648H845.182C844.99 138.48 843.07 137.088 838.846 137.088ZM862.779 156.48C857.595 156.48 854.475 154.08 854.475 150.048C854.475 146.496 857.115 144.288 862.251 143.76L872.571 142.704V141.792C872.571 138.672 871.179 137.808 867.339 137.808C863.691 137.808 862.203 138.768 862.203 141.504V141.696H854.955V141.552C854.955 135.6 859.947 131.472 867.867 131.472C875.883 131.472 879.675 135.6 879.675 141.888V156H872.955V150.48H872.571C871.467 154.224 868.107 156.48 862.779 156.48ZM861.723 149.568C861.723 150.864 862.731 151.392 864.843 151.392C869.739 151.392 872.379 150.24 872.571 146.832L864.219 147.792C862.491 147.936 861.723 148.416 861.723 149.568ZM898.396 145.392H891.196V143.712C891.196 140.208 893.644 138.576 896.62 137.424L899.98 136.08C902.284 135.168 903.388 134.448 903.388 132.816C903.388 131.184 902.428 129.936 896.86 129.936C891.004 129.936 889.228 131.472 889.228 134.544V136.416H882.124V135.12C882.124 128.88 886.396 123.36 897.388 123.36C906.844 123.36 910.588 127.488 910.588 132.576C910.588 137.568 907.18 139.584 904.012 140.832L900.46 142.224C898.684 142.944 898.396 143.616 898.396 144.816V145.392ZM898.972 156H890.716V148.176H898.972V156ZM458.716 214H432.364V181.84H439.564V207.52H458.716V214ZM474.622 214.48C466.606 214.48 461.134 210.544 461.134 202C461.134 194.32 466.558 189.472 474.478 189.472C482.35 189.472 487.582 193.6 487.582 201.136C487.582 202 487.486 202.624 487.39 203.44H467.806C467.998 207.136 469.726 208.72 474.382 208.72C478.654 208.72 480.142 207.616 480.142 205.552V205.072H487.342V205.6C487.342 210.832 482.254 214.48 474.622 214.48ZM474.334 195.088C470.062 195.088 468.238 196.528 467.902 199.648H480.67C480.478 196.48 478.558 195.088 474.334 195.088ZM507.82 214H501.868C496.252 214 492.844 211.36 492.844 205.312V195.904H489.052V189.952H492.844V185.296H500.044V189.952H507.82V195.904H500.044V204.496C500.044 206.896 500.956 207.52 503.5 207.52H507.82V214ZM513.108 197.008H510.564V192.544H512.916C513.876 192.544 514.356 192.256 514.356 191.056V190.24H510.276V181.84H519.54V191.008C519.54 195.04 517.188 197.008 513.108 197.008ZM535.281 214.48C527.169 214.48 522.705 211.312 522.705 205.744V205.6H529.905V206.032C529.905 208.192 531.249 208.768 535.329 208.768C539.169 208.768 540.081 208.144 540.081 206.704C540.081 205.36 539.361 204.976 536.529 204.592L529.761 203.776C524.961 203.248 522.273 201.088 522.273 197.056C522.273 192.832 525.873 189.472 534.129 189.472C542.001 189.472 546.465 192.448 546.465 198.304V198.448H539.265V198.16C539.265 196.192 538.305 195.184 533.889 195.184C530.289 195.184 529.377 195.808 529.377 197.344C529.377 198.592 530.049 199.12 533.217 199.504L538.353 200.128C544.785 200.848 547.185 203.008 547.185 206.992C547.185 211.504 542.721 214.48 535.281 214.48ZM575.88 214H568.68V188.32H556.728V181.84H587.832V188.32H575.88V214ZM598.046 214.48C592.862 214.48 589.742 212.08 589.742 208.048C589.742 204.496 592.382 202.288 597.518 201.76L607.838 200.704V199.792C607.838 196.672 606.446 195.808 602.606 195.808C598.958 195.808 597.47 196.768 597.47 199.504V199.696H590.222V199.552C590.222 193.6 595.214 189.472 603.134 189.472C611.15 189.472 614.942 193.6 614.942 199.888V214H608.222V208.48H607.838C606.734 212.224 603.374 214.48 598.046 214.48ZM596.99 207.568C596.99 208.864 597.998 209.392 600.11 209.392C605.006 209.392 607.646 208.24 607.838 204.832L599.486 205.792C597.758 205.936 596.99 206.416 596.99 207.568ZM626.031 214H618.831V181.84H626.031V214ZM637.24 214H630.04V181.84H637.24V198.88H642.712L648.856 189.952H657.4L648.616 201.568L657.256 214H648.76L642.76 205.312H637.24V214ZM683.932 214H673.228L665.644 181.84H673.708L677.596 200.08L678.7 207.136H679.228L680.716 200.08L686.092 181.84H696.796L702.124 200.08L703.612 207.136H704.14L705.244 200.08L709.132 181.84H717.004L709.372 214H698.668L693.868 197.92L691.612 188.656H691.084L688.828 197.92L683.932 214ZM726.929 187.504H719.729V181.84H726.929V187.504ZM726.929 214H719.729V189.952H726.929V214ZM747.882 214H741.93C736.314 214 732.906 211.36 732.906 205.312V195.904H729.114V189.952H732.906V185.296H740.106V189.952H747.882V195.904H740.106V204.496C740.106 206.896 741.018 207.52 743.562 207.52H747.882V214ZM758.018 214H750.818V181.84H758.018V197.296H758.402C759.17 193.216 762.002 189.472 768.146 189.472C774.626 189.472 777.794 193.696 777.794 199.264V214H770.594V201.424C770.594 197.392 768.866 195.952 764.354 195.952C759.506 195.952 758.018 197.92 758.018 201.952V214ZM804.866 214.48C794.402 214.48 789.074 209.2 789.074 200.56V181.84H796.274V200.032C796.274 205.504 798.338 207.472 804.866 207.472C811.442 207.472 813.458 205.504 813.458 200.032V181.84H820.658V200.56C820.658 209.2 815.378 214.48 804.866 214.48ZM836.666 214.48C828.554 214.48 824.09 211.312 824.09 205.744V205.6H831.29V206.032C831.29 208.192 832.634 208.768 836.714 208.768C840.554 208.768 841.466 208.144 841.466 206.704C841.466 205.36 840.746 204.976 837.914 204.592L831.146 203.776C826.346 203.248 823.658 201.088 823.658 197.056C823.658 192.832 827.258 189.472 835.514 189.472C843.386 189.472 847.85 192.448 847.85 198.304V198.448H840.65V198.16C840.65 196.192 839.69 195.184 835.274 195.184C831.674 195.184 830.762 195.808 830.762 197.344C830.762 198.592 831.434 199.12 834.602 199.504L839.738 200.128C846.17 200.848 848.57 203.008 848.57 206.992C848.57 211.504 844.106 214.48 836.666 214.48Z" fill="white"/>
<path d="M363.844 265.06V279H362.024V265.06H363.844ZM371.406 269.54H369.106V279H367.286V269.54H365.866V268.04H367.286V267.26C367.286 266.033 367.6 265.14 368.226 264.58C368.866 264.007 369.886 263.72 371.286 263.72V265.24C370.486 265.24 369.92 265.4 369.586 265.72C369.266 266.027 369.106 266.54 369.106 267.26V268.04H371.406V269.54ZM388.3 268.04L381.7 284.16H379.82L381.98 278.88L377.56 268.04H379.58L383.02 276.92L386.42 268.04H388.3ZM394.91 279.18C393.883 279.18 392.95 278.947 392.11 278.48C391.283 278.013 390.63 277.353 390.15 276.5C389.683 275.633 389.45 274.633 389.45 273.5C389.45 272.38 389.69 271.393 390.17 270.54C390.663 269.673 391.33 269.013 392.17 268.56C393.01 268.093 393.95 267.86 394.99 267.86C396.03 267.86 396.97 268.093 397.81 268.56C398.65 269.013 399.31 269.667 399.79 270.52C400.283 271.373 400.53 272.367 400.53 273.5C400.53 274.633 400.277 275.633 399.77 276.5C399.277 277.353 398.603 278.013 397.75 278.48C396.897 278.947 395.95 279.18 394.91 279.18ZM394.91 277.58C395.563 277.58 396.177 277.427 396.75 277.12C397.323 276.813 397.783 276.353 398.13 275.74C398.49 275.127 398.67 274.38 398.67 273.5C398.67 272.62 398.497 271.873 398.15 271.26C397.803 270.647 397.35 270.193 396.79 269.9C396.23 269.593 395.623 269.44 394.97 269.44C394.303 269.44 393.69 269.593 393.13 269.9C392.583 270.193 392.143 270.647 391.81 271.26C391.477 271.873 391.31 272.62 391.31 273.5C391.31 274.393 391.47 275.147 391.79 275.76C392.123 276.373 392.563 276.833 393.11 277.14C393.657 277.433 394.257 277.58 394.91 277.58ZM412.643 268.04V279H410.823V277.38C410.476 277.94 409.989 278.38 409.363 278.7C408.749 279.007 408.069 279.16 407.323 279.16C406.469 279.16 405.703 278.987 405.023 278.64C404.343 278.28 403.803 277.747 403.403 277.04C403.016 276.333 402.823 275.473 402.823 274.46V268.04H404.623V274.22C404.623 275.3 404.896 276.133 405.443 276.72C405.989 277.293 406.736 277.58 407.683 277.58C408.656 277.58 409.423 277.28 409.983 276.68C410.543 276.08 410.823 275.207 410.823 274.06V268.04H412.643ZM420.368 273.48C420.368 272.36 420.594 271.38 421.048 270.54C421.501 269.687 422.121 269.027 422.908 268.56C423.708 268.093 424.594 267.86 425.568 267.86C426.528 267.86 427.361 268.067 428.068 268.48C428.774 268.893 429.301 269.413 429.648 270.04V268.04H431.488V279H429.648V276.96C429.288 277.6 428.748 278.133 428.028 278.56C427.321 278.973 426.494 279.18 425.548 279.18C424.574 279.18 423.694 278.94 422.908 278.46C422.121 277.98 421.501 277.307 421.048 276.44C420.594 275.573 420.368 274.587 420.368 273.48ZM429.648 273.5C429.648 272.673 429.481 271.953 429.148 271.34C428.814 270.727 428.361 270.26 427.788 269.94C427.228 269.607 426.608 269.44 425.928 269.44C425.248 269.44 424.628 269.6 424.068 269.92C423.508 270.24 423.061 270.707 422.728 271.32C422.394 271.933 422.228 272.653 422.228 273.48C422.228 274.32 422.394 275.053 422.728 275.68C423.061 276.293 423.508 276.767 424.068 277.1C424.628 277.42 425.248 277.58 425.928 277.58C426.608 277.58 427.228 277.42 427.788 277.1C428.361 276.767 428.814 276.293 429.148 275.68C429.481 275.053 429.648 274.327 429.648 273.5ZM436.383 269.82C436.703 269.193 437.157 268.707 437.743 268.36C438.343 268.013 439.07 267.84 439.923 267.84V269.72H439.443C437.403 269.72 436.383 270.827 436.383 273.04V279H434.563V268.04H436.383V269.82ZM452.024 273.1C452.024 273.447 452.004 273.813 451.964 274.2H443.204C443.271 275.28 443.638 276.127 444.304 276.74C444.984 277.34 445.804 277.64 446.764 277.64C447.551 277.64 448.204 277.46 448.724 277.1C449.258 276.727 449.631 276.233 449.844 275.62H451.804C451.511 276.673 450.924 277.533 450.044 278.2C449.164 278.853 448.071 279.18 446.764 279.18C445.724 279.18 444.791 278.947 443.964 278.48C443.151 278.013 442.511 277.353 442.044 276.5C441.578 275.633 441.344 274.633 441.344 273.5C441.344 272.367 441.571 271.373 442.024 270.52C442.478 269.667 443.111 269.013 443.924 268.56C444.751 268.093 445.698 267.86 446.764 267.86C447.804 267.86 448.724 268.087 449.524 268.54C450.324 268.993 450.938 269.62 451.364 270.42C451.804 271.207 452.024 272.1 452.024 273.1ZM450.144 272.72C450.144 272.027 449.991 271.433 449.684 270.94C449.378 270.433 448.958 270.053 448.424 269.8C447.904 269.533 447.324 269.4 446.684 269.4C445.764 269.4 444.978 269.693 444.324 270.28C443.684 270.867 443.318 271.68 443.224 272.72H450.144ZM459.079 273.5C459.079 272.367 459.305 271.38 459.759 270.54C460.212 269.687 460.839 269.027 461.639 268.56C462.452 268.093 463.379 267.86 464.419 267.86C465.765 267.86 466.872 268.187 467.739 268.84C468.619 269.493 469.199 270.4 469.479 271.56H467.519C467.332 270.893 466.965 270.367 466.419 269.98C465.885 269.593 465.219 269.4 464.419 269.4C463.379 269.4 462.539 269.76 461.899 270.48C461.259 271.187 460.939 272.193 460.939 273.5C460.939 274.82 461.259 275.84 461.899 276.56C462.539 277.28 463.379 277.64 464.419 277.64C465.219 277.64 465.885 277.453 466.419 277.08C466.952 276.707 467.319 276.173 467.519 275.48H469.479C469.185 276.6 468.599 277.5 467.719 278.18C466.839 278.847 465.739 279.18 464.419 279.18C463.379 279.18 462.452 278.947 461.639 278.48C460.839 278.013 460.212 277.353 459.759 276.5C459.305 275.647 459.079 274.647 459.079 273.5ZM476.687 279.18C475.661 279.18 474.727 278.947 473.887 278.48C473.061 278.013 472.407 277.353 471.927 276.5C471.461 275.633 471.227 274.633 471.227 273.5C471.227 272.38 471.467 271.393 471.947 270.54C472.441 269.673 473.107 269.013 473.947 268.56C474.787 268.093 475.727 267.86 476.767 267.86C477.807 267.86 478.747 268.093 479.587 268.56C480.427 269.013 481.087 269.667 481.567 270.52C482.061 271.373 482.307 272.367 482.307 273.5C482.307 274.633 482.054 275.633 481.547 276.5C481.054 277.353 480.381 278.013 479.527 278.48C478.674 278.947 477.727 279.18 476.687 279.18ZM476.687 277.58C477.341 277.58 477.954 277.427 478.527 277.12C479.101 276.813 479.561 276.353 479.907 275.74C480.267 275.127 480.447 274.38 480.447 273.5C480.447 272.62 480.274 271.873 479.927 271.26C479.581 270.647 479.127 270.193 478.567 269.9C478.007 269.593 477.401 269.44 476.747 269.44C476.081 269.44 475.467 269.593 474.907 269.9C474.361 270.193 473.921 270.647 473.587 271.26C473.254 271.873 473.087 272.62 473.087 273.5C473.087 274.393 473.247 275.147 473.567 275.76C473.901 276.373 474.341 276.833 474.887 277.14C475.434 277.433 476.034 277.58 476.687 277.58ZM490.04 267.84C491.373 267.84 492.453 268.247 493.28 269.06C494.107 269.86 494.52 271.02 494.52 272.54V279H492.72V272.8C492.72 271.707 492.447 270.873 491.9 270.3C491.353 269.713 490.607 269.42 489.66 269.42C488.7 269.42 487.933 269.72 487.36 270.32C486.8 270.92 486.52 271.793 486.52 272.94V279H484.7V268.04H486.52V269.6C486.88 269.04 487.367 268.607 487.98 268.3C488.607 267.993 489.293 267.84 490.04 267.84ZM501.953 269.54H499.653V279H497.833V269.54H496.413V268.04H497.833V267.26C497.833 266.033 498.146 265.14 498.773 264.58C499.413 264.007 500.433 263.72 501.833 263.72V265.24C501.033 265.24 500.466 265.4 500.133 265.72C499.813 266.027 499.653 266.54 499.653 267.26V268.04H501.953V269.54ZM513.795 268.04V279H511.975V277.38C511.628 277.94 511.142 278.38 510.515 278.7C509.902 279.007 509.222 279.16 508.475 279.16C507.622 279.16 506.855 278.987 506.175 278.64C505.495 278.28 504.955 277.747 504.555 277.04C504.168 276.333 503.975 275.473 503.975 274.46V268.04H505.775V274.22C505.775 275.3 506.048 276.133 506.595 276.72C507.142 277.293 507.888 277.58 508.835 277.58C509.808 277.58 510.575 277.28 511.135 276.68C511.695 276.08 511.975 275.207 511.975 274.06V268.04H513.795ZM520.748 279.18C519.908 279.18 519.155 279.04 518.488 278.76C517.821 278.467 517.295 278.067 516.908 277.56C516.521 277.04 516.308 276.447 516.268 275.78H518.148C518.201 276.327 518.455 276.773 518.908 277.12C519.375 277.467 519.981 277.64 520.728 277.64C521.421 277.64 521.968 277.487 522.368 277.18C522.768 276.873 522.968 276.487 522.968 276.02C522.968 275.54 522.755 275.187 522.328 274.96C521.901 274.72 521.241 274.487 520.348 274.26C519.535 274.047 518.868 273.833 518.348 273.62C517.841 273.393 517.401 273.067 517.028 272.64C516.668 272.2 516.488 271.627 516.488 270.92C516.488 270.36 516.655 269.847 516.988 269.38C517.321 268.913 517.795 268.547 518.408 268.28C519.021 268 519.721 267.86 520.508 267.86C521.721 267.86 522.701 268.167 523.448 268.78C524.195 269.393 524.595 270.233 524.648 271.3H522.828C522.788 270.727 522.555 270.267 522.128 269.92C521.715 269.573 521.155 269.4 520.448 269.4C519.795 269.4 519.275 269.54 518.888 269.82C518.501 270.1 518.308 270.467 518.308 270.92C518.308 271.28 518.421 271.58 518.648 271.82C518.888 272.047 519.181 272.233 519.528 272.38C519.888 272.513 520.381 272.667 521.008 272.84C521.795 273.053 522.435 273.267 522.928 273.48C523.421 273.68 523.841 273.987 524.188 274.4C524.548 274.813 524.735 275.353 524.748 276.02C524.748 276.62 524.581 277.16 524.248 277.64C523.915 278.12 523.441 278.5 522.828 278.78C522.228 279.047 521.535 279.18 520.748 279.18ZM537.317 273.1C537.317 273.447 537.297 273.813 537.257 274.2H528.497C528.564 275.28 528.931 276.127 529.597 276.74C530.277 277.34 531.097 277.64 532.057 277.64C532.844 277.64 533.497 277.46 534.017 277.1C534.551 276.727 534.924 276.233 535.137 275.62H537.097C536.804 276.673 536.217 277.533 535.337 278.2C534.457 278.853 533.364 279.18 532.057 279.18C531.017 279.18 530.084 278.947 529.257 278.48C528.444 278.013 527.804 277.353 527.337 276.5C526.871 275.633 526.637 274.633 526.637 273.5C526.637 272.367 526.864 271.373 527.317 270.52C527.771 269.667 528.404 269.013 529.217 268.56C530.044 268.093 530.991 267.86 532.057 267.86C533.097 267.86 534.017 268.087 534.817 268.54C535.617 268.993 536.231 269.62 536.657 270.42C537.097 271.207 537.317 272.1 537.317 273.1ZM535.437 272.72C535.437 272.027 535.284 271.433 534.977 270.94C534.671 270.433 534.251 270.053 533.717 269.8C533.197 269.533 532.617 269.4 531.977 269.4C531.057 269.4 530.271 269.693 529.617 270.28C528.977 270.867 528.611 271.68 528.517 272.72H535.437ZM539.04 273.48C539.04 272.36 539.266 271.38 539.72 270.54C540.173 269.687 540.793 269.027 541.58 268.56C542.38 268.093 543.273 267.86 544.26 267.86C545.113 267.86 545.906 268.06 546.64 268.46C547.373 268.847 547.933 269.36 548.32 270V264.2H550.16V279H548.32V276.94C547.96 277.593 547.426 278.133 546.72 278.56C546.013 278.973 545.186 279.18 544.24 279.18C543.266 279.18 542.38 278.94 541.58 278.46C540.793 277.98 540.173 277.307 539.72 276.44C539.266 275.573 539.04 274.587 539.04 273.48ZM548.32 273.5C548.32 272.673 548.153 271.953 547.82 271.34C547.486 270.727 547.033 270.26 546.46 269.94C545.9 269.607 545.28 269.44 544.6 269.44C543.92 269.44 543.3 269.6 542.74 269.92C542.18 270.24 541.733 270.707 541.4 271.32C541.066 271.933 540.9 272.653 540.9 273.48C540.9 274.32 541.066 275.053 541.4 275.68C541.733 276.293 542.18 276.767 542.74 277.1C543.3 277.42 543.92 277.58 544.6 277.58C545.28 277.58 545.9 277.42 546.46 277.1C547.033 276.767 547.486 276.293 547.82 275.68C548.153 275.053 548.32 274.327 548.32 273.5ZM563.347 279.18C562.321 279.18 561.387 278.947 560.547 278.48C559.721 278.013 559.067 277.353 558.587 276.5C558.121 275.633 557.887 274.633 557.887 273.5C557.887 272.38 558.127 271.393 558.607 270.54C559.101 269.673 559.767 269.013 560.607 268.56C561.447 268.093 562.387 267.86 563.427 267.86C564.467 267.86 565.407 268.093 566.247 268.56C567.087 269.013 567.747 269.667 568.227 270.52C568.721 271.373 568.967 272.367 568.967 273.5C568.967 274.633 568.714 275.633 568.207 276.5C567.714 277.353 567.041 278.013 566.187 278.48C565.334 278.947 564.387 279.18 563.347 279.18ZM563.347 277.58C564.001 277.58 564.614 277.427 565.187 277.12C565.761 276.813 566.221 276.353 566.567 275.74C566.927 275.127 567.107 274.38 567.107 273.5C567.107 272.62 566.934 271.873 566.587 271.26C566.241 270.647 565.787 270.193 565.227 269.9C564.667 269.593 564.061 269.44 563.407 269.44C562.741 269.44 562.127 269.593 561.567 269.9C561.021 270.193 560.581 270.647 560.247 271.26C559.914 271.873 559.747 272.62 559.747 273.5C559.747 274.393 559.907 275.147 560.227 275.76C560.561 276.373 561.001 276.833 561.547 277.14C562.094 277.433 562.694 277.58 563.347 277.58ZM573.18 269.82C573.5 269.193 573.954 268.707 574.54 268.36C575.14 268.013 575.867 267.84 576.72 267.84V269.72H576.24C574.2 269.72 573.18 270.827 573.18 273.04V279H571.36V268.04H573.18V269.82ZM585.093 266.26C584.747 266.26 584.453 266.14 584.213 265.9C583.973 265.66 583.853 265.367 583.853 265.02C583.853 264.673 583.973 264.38 584.213 264.14C584.453 263.9 584.747 263.78 585.093 263.78C585.427 263.78 585.707 263.9 585.933 264.14C586.173 264.38 586.293 264.673 586.293 265.02C586.293 265.367 586.173 265.66 585.933 265.9C585.707 266.14 585.427 266.26 585.093 266.26ZM585.973 268.04V279H584.153V268.04H585.973ZM594.415 267.84C595.748 267.84 596.828 268.247 597.655 269.06C598.482 269.86 598.895 271.02 598.895 272.54V279H597.095V272.8C597.095 271.707 596.822 270.873 596.275 270.3C595.728 269.713 594.982 269.42 594.035 269.42C593.075 269.42 592.308 269.72 591.735 270.32C591.175 270.92 590.895 271.793 590.895 272.94V279H589.075V268.04H590.895V269.6C591.255 269.04 591.742 268.607 592.355 268.3C592.982 267.993 593.668 267.84 594.415 267.84ZM606.52 273.48C606.52 272.36 606.747 271.38 607.2 270.54C607.653 269.687 608.273 269.027 609.06 268.56C609.86 268.093 610.753 267.86 611.74 267.86C612.593 267.86 613.387 268.06 614.12 268.46C614.853 268.847 615.413 269.36 615.8 270V264.2H617.64V279H615.8V276.94C615.44 277.593 614.907 278.133 614.2 278.56C613.493 278.973 612.667 279.18 611.72 279.18C610.747 279.18 609.86 278.94 609.06 278.46C608.273 277.98 607.653 277.307 607.2 276.44C606.747 275.573 606.52 274.587 606.52 273.48ZM615.8 273.5C615.8 272.673 615.633 271.953 615.3 271.34C614.967 270.727 614.513 270.26 613.94 269.94C613.38 269.607 612.76 269.44 612.08 269.44C611.4 269.44 610.78 269.6 610.22 269.92C609.66 270.24 609.213 270.707 608.88 271.32C608.547 271.933 608.38 272.653 608.38 273.48C608.38 274.32 608.547 275.053 608.88 275.68C609.213 276.293 609.66 276.767 610.22 277.1C610.78 277.42 611.4 277.58 612.08 277.58C612.76 277.58 613.38 277.42 613.94 277.1C614.513 276.767 614.967 276.293 615.3 275.68C615.633 275.053 615.8 274.327 615.8 273.5ZM625.496 279.18C624.469 279.18 623.536 278.947 622.696 278.48C621.869 278.013 621.216 277.353 620.736 276.5C620.269 275.633 620.036 274.633 620.036 273.5C620.036 272.38 620.276 271.393 620.756 270.54C621.249 269.673 621.916 269.013 622.756 268.56C623.596 268.093 624.536 267.86 625.576 267.86C626.616 267.86 627.556 268.093 628.396 268.56C629.236 269.013 629.896 269.667 630.376 270.52C630.869 271.373 631.116 272.367 631.116 273.5C631.116 274.633 630.862 275.633 630.356 276.5C629.862 277.353 629.189 278.013 628.336 278.48C627.482 278.947 626.536 279.18 625.496 279.18ZM625.496 277.58C626.149 277.58 626.762 277.427 627.336 277.12C627.909 276.813 628.369 276.353 628.716 275.74C629.076 275.127 629.256 274.38 629.256 273.5C629.256 272.62 629.082 271.873 628.736 271.26C628.389 270.647 627.936 270.193 627.376 269.9C626.816 269.593 626.209 269.44 625.556 269.44C624.889 269.44 624.276 269.593 623.716 269.9C623.169 270.193 622.729 270.647 622.396 271.26C622.062 271.873 621.896 272.62 621.896 273.5C621.896 274.393 622.056 275.147 622.376 275.76C622.709 276.373 623.149 276.833 623.696 277.14C624.242 277.433 624.842 277.58 625.496 277.58ZM643.229 268.04V279H641.409V277.38C641.062 277.94 640.575 278.38 639.949 278.7C639.335 279.007 638.655 279.16 637.909 279.16C637.055 279.16 636.289 278.987 635.609 278.64C634.929 278.28 634.389 277.747 633.989 277.04C633.602 276.333 633.409 275.473 633.409 274.46V268.04H635.209V274.22C635.209 275.3 635.482 276.133 636.029 276.72C636.575 277.293 637.322 277.58 638.269 277.58C639.242 277.58 640.009 277.28 640.569 276.68C641.129 276.08 641.409 275.207 641.409 274.06V268.04H643.229ZM648.122 270.08C648.495 269.427 649.042 268.893 649.762 268.48C650.482 268.067 651.302 267.86 652.222 267.86C653.208 267.86 654.095 268.093 654.882 268.56C655.668 269.027 656.288 269.687 656.742 270.54C657.195 271.38 657.422 272.36 657.422 273.48C657.422 274.587 657.195 275.573 656.742 276.44C656.288 277.307 655.662 277.98 654.862 278.46C654.075 278.94 653.195 279.18 652.222 279.18C651.275 279.18 650.442 278.973 649.722 278.56C649.015 278.147 648.482 277.62 648.122 276.98V279H646.302V264.2H648.122V270.08ZM655.562 273.48C655.562 272.653 655.395 271.933 655.062 271.32C654.728 270.707 654.275 270.24 653.702 269.92C653.142 269.6 652.522 269.44 651.842 269.44C651.175 269.44 650.555 269.607 649.982 269.94C649.422 270.26 648.968 270.733 648.622 271.36C648.288 271.973 648.122 272.687 648.122 273.5C648.122 274.327 648.288 275.053 648.622 275.68C648.968 276.293 649.422 276.767 649.982 277.1C650.555 277.42 651.175 277.58 651.842 277.58C652.522 277.58 653.142 277.42 653.702 277.1C654.275 276.767 654.728 276.293 655.062 275.68C655.395 275.053 655.562 274.32 655.562 273.48ZM662.037 269.54V276C662.037 276.533 662.151 276.913 662.377 277.14C662.604 277.353 662.997 277.46 663.557 277.46H664.897V279H663.257C662.244 279 661.484 278.767 660.977 278.3C660.471 277.833 660.217 277.067 660.217 276V269.54H658.797V268.04H660.217V265.28H662.037V268.04H664.897V269.54H662.037ZM668.983 276.48L666.743 281.86H665.522L666.983 276.48H668.983ZM685.839 268.04L679.239 284.16H677.359L679.519 278.88L675.099 268.04H677.119L680.559 276.92L683.959 268.04H685.839ZM692.449 279.18C691.422 279.18 690.489 278.947 689.649 278.48C688.822 278.013 688.169 277.353 687.689 276.5C687.222 275.633 686.989 274.633 686.989 273.5C686.989 272.38 687.229 271.393 687.709 270.54C688.202 269.673 688.869 269.013 689.709 268.56C690.549 268.093 691.489 267.86 692.529 267.86C693.569 267.86 694.509 268.093 695.349 268.56C696.189 269.013 696.849 269.667 697.329 270.52C697.822 271.373 698.069 272.367 698.069 273.5C698.069 274.633 697.816 275.633 697.309 276.5C696.816 277.353 696.142 278.013 695.289 278.48C694.436 278.947 693.489 279.18 692.449 279.18ZM692.449 277.58C693.102 277.58 693.716 277.427 694.289 277.12C694.862 276.813 695.322 276.353 695.669 275.74C696.029 275.127 696.209 274.38 696.209 273.5C696.209 272.62 696.036 271.873 695.689 271.26C695.342 270.647 694.889 270.193 694.329 269.9C693.769 269.593 693.162 269.44 692.509 269.44C691.842 269.44 691.229 269.593 690.669 269.9C690.122 270.193 689.682 270.647 689.349 271.26C689.016 271.873 688.849 272.62 688.849 273.5C688.849 274.393 689.009 275.147 689.329 275.76C689.662 276.373 690.102 276.833 690.649 277.14C691.196 277.433 691.796 277.58 692.449 277.58ZM710.182 268.04V279H708.362V277.38C708.015 277.94 707.529 278.38 706.902 278.7C706.289 279.007 705.609 279.16 704.862 279.16C704.009 279.16 703.242 278.987 702.562 278.64C701.882 278.28 701.342 277.747 700.942 277.04C700.555 276.333 700.362 275.473 700.362 274.46V268.04H702.162V274.22C702.162 275.3 702.435 276.133 702.982 276.72C703.529 277.293 704.275 277.58 705.222 277.58C706.195 277.58 706.962 277.28 707.522 276.68C708.082 276.08 708.362 275.207 708.362 274.06V268.04H710.182ZM717.907 273.5C717.907 272.367 718.134 271.38 718.587 270.54C719.04 269.687 719.667 269.027 720.467 268.56C721.28 268.093 722.207 267.86 723.247 267.86C724.594 267.86 725.7 268.187 726.567 268.84C727.447 269.493 728.027 270.4 728.307 271.56H726.347C726.16 270.893 725.794 270.367 725.247 269.98C724.714 269.593 724.047 269.4 723.247 269.4C722.207 269.4 721.367 269.76 720.727 270.48C720.087 271.187 719.767 272.193 719.767 273.5C719.767 274.82 720.087 275.84 720.727 276.56C721.367 277.28 722.207 277.64 723.247 277.64C724.047 277.64 724.714 277.453 725.247 277.08C725.78 276.707 726.147 276.173 726.347 275.48H728.307C728.014 276.6 727.427 277.5 726.547 278.18C725.667 278.847 724.567 279.18 723.247 279.18C722.207 279.18 721.28 278.947 720.467 278.48C719.667 278.013 719.04 277.353 718.587 276.5C718.134 275.647 717.907 274.647 717.907 273.5ZM730.055 273.48C730.055 272.36 730.282 271.38 730.735 270.54C731.189 269.687 731.809 269.027 732.595 268.56C733.395 268.093 734.282 267.86 735.255 267.86C736.215 267.86 737.049 268.067 737.755 268.48C738.462 268.893 738.989 269.413 739.335 270.04V268.04H741.175V279H739.335V276.96C738.975 277.6 738.435 278.133 737.715 278.56C737.009 278.973 736.182 279.18 735.235 279.18C734.262 279.18 733.382 278.94 732.595 278.46C731.809 277.98 731.189 277.307 730.735 276.44C730.282 275.573 730.055 274.587 730.055 273.48ZM739.335 273.5C739.335 272.673 739.169 271.953 738.835 271.34C738.502 270.727 738.049 270.26 737.475 269.94C736.915 269.607 736.295 269.44 735.615 269.44C734.935 269.44 734.315 269.6 733.755 269.92C733.195 270.24 732.749 270.707 732.415 271.32C732.082 271.933 731.915 272.653 731.915 273.48C731.915 274.32 732.082 275.053 732.415 275.68C732.749 276.293 733.195 276.767 733.755 277.1C734.315 277.42 734.935 277.58 735.615 277.58C736.295 277.58 736.915 277.42 737.475 277.1C738.049 276.767 738.502 276.293 738.835 275.68C739.169 275.053 739.335 274.327 739.335 273.5ZM749.591 267.84C750.924 267.84 752.004 268.247 752.831 269.06C753.658 269.86 754.071 271.02 754.071 272.54V279H752.271V272.8C752.271 271.707 751.998 270.873 751.451 270.3C750.904 269.713 750.158 269.42 749.211 269.42C748.251 269.42 747.484 269.72 746.911 270.32C746.351 270.92 746.071 271.793 746.071 272.94V279H744.251V268.04H746.071V269.6C746.431 269.04 746.918 268.607 747.531 268.3C748.158 267.993 748.844 267.84 749.591 267.84ZM766.836 269.54H764.536V279H762.716V269.54H761.296V268.04H762.716V267.26C762.716 266.033 763.029 265.14 763.656 264.58C764.296 264.007 765.316 263.72 766.716 263.72V265.24C765.916 265.24 765.349 265.4 765.016 265.72C764.696 266.027 764.536 266.54 764.536 267.26V268.04H766.836V269.54ZM770.778 269.82C771.098 269.193 771.551 268.707 772.138 268.36C772.738 268.013 773.465 267.84 774.318 267.84V269.72H773.838C771.798 269.72 770.778 270.827 770.778 273.04V279H768.958V268.04H770.778V269.82ZM786.419 273.1C786.419 273.447 786.399 273.813 786.359 274.2H777.599C777.666 275.28 778.032 276.127 778.699 276.74C779.379 277.34 780.199 277.64 781.159 277.64C781.946 277.64 782.599 277.46 783.119 277.1C783.652 276.727 784.026 276.233 784.239 275.62H786.199C785.906 276.673 785.319 277.533 784.439 278.2C783.559 278.853 782.466 279.18 781.159 279.18C780.119 279.18 779.186 278.947 778.359 278.48C777.546 278.013 776.906 277.353 776.439 276.5C775.972 275.633 775.739 274.633 775.739 273.5C775.739 272.367 775.966 271.373 776.419 270.52C776.872 269.667 777.506 269.013 778.319 268.56C779.146 268.093 780.092 267.86 781.159 267.86C782.199 267.86 783.119 268.087 783.919 268.54C784.719 268.993 785.332 269.62 785.759 270.42C786.199 271.207 786.419 272.1 786.419 273.1ZM784.539 272.72C784.539 272.027 784.386 271.433 784.079 270.94C783.772 270.433 783.352 270.053 782.819 269.8C782.299 269.533 781.719 269.4 781.079 269.4C780.159 269.4 779.372 269.693 778.719 270.28C778.079 270.867 777.712 271.68 777.619 272.72H784.539ZM798.821 273.1C798.821 273.447 798.801 273.813 798.761 274.2H790.001C790.068 275.28 790.435 276.127 791.101 276.74C791.781 277.34 792.601 277.64 793.561 277.64C794.348 277.64 795.001 277.46 795.521 277.1C796.055 276.727 796.428 276.233 796.641 275.62H798.601C798.308 276.673 797.721 277.533 796.841 278.2C795.961 278.853 794.868 279.18 793.561 279.18C792.521 279.18 791.588 278.947 790.761 278.48C789.948 278.013 789.308 277.353 788.841 276.5C788.375 275.633 788.141 274.633 788.141 273.5C788.141 272.367 788.368 271.373 788.821 270.52C789.275 269.667 789.908 269.013 790.721 268.56C791.548 268.093 792.495 267.86 793.561 267.86C794.601 267.86 795.521 268.087 796.321 268.54C797.121 268.993 797.735 269.62 798.161 270.42C798.601 271.207 798.821 272.1 798.821 273.1ZM796.941 272.72C796.941 272.027 796.788 271.433 796.481 270.94C796.175 270.433 795.755 270.053 795.221 269.8C794.701 269.533 794.121 269.4 793.481 269.4C792.561 269.4 791.775 269.693 791.121 270.28C790.481 270.867 790.115 271.68 790.021 272.72H796.941ZM805.876 273.5C805.876 272.367 806.102 271.38 806.556 270.54C807.009 269.687 807.636 269.027 808.436 268.56C809.249 268.093 810.176 267.86 811.216 267.86C812.562 267.86 813.669 268.187 814.536 268.84C815.416 269.493 815.996 270.4 816.276 271.56H814.316C814.129 270.893 813.762 270.367 813.216 269.98C812.682 269.593 812.016 269.4 811.216 269.4C810.176 269.4 809.336 269.76 808.696 270.48C808.056 271.187 807.736 272.193 807.736 273.5C807.736 274.82 808.056 275.84 808.696 276.56C809.336 277.28 810.176 277.64 811.216 277.64C812.016 277.64 812.682 277.453 813.216 277.08C813.749 276.707 814.116 276.173 814.316 275.48H816.276C815.982 276.6 815.396 277.5 814.516 278.18C813.636 278.847 812.536 279.18 811.216 279.18C810.176 279.18 809.249 278.947 808.436 278.48C807.636 278.013 807.009 277.353 806.556 276.5C806.102 275.647 805.876 274.647 805.876 273.5ZM823.484 279.18C822.457 279.18 821.524 278.947 820.684 278.48C819.857 278.013 819.204 277.353 818.724 276.5C818.257 275.633 818.024 274.633 818.024 273.5C818.024 272.38 818.264 271.393 818.744 270.54C819.237 269.673 819.904 269.013 820.744 268.56C821.584 268.093 822.524 267.86 823.564 267.86C824.604 267.86 825.544 268.093 826.384 268.56C827.224 269.013 827.884 269.667 828.364 270.52C828.857 271.373 829.104 272.367 829.104 273.5C829.104 274.633 828.851 275.633 828.344 276.5C827.851 277.353 827.177 278.013 826.324 278.48C825.471 278.947 824.524 279.18 823.484 279.18ZM823.484 277.58C824.137 277.58 824.751 277.427 825.324 277.12C825.897 276.813 826.357 276.353 826.704 275.74C827.064 275.127 827.244 274.38 827.244 273.5C827.244 272.62 827.071 271.873 826.724 271.26C826.377 270.647 825.924 270.193 825.364 269.9C824.804 269.593 824.197 269.44 823.544 269.44C822.877 269.44 822.264 269.593 821.704 269.9C821.157 270.193 820.717 270.647 820.384 271.26C820.051 271.873 819.884 272.62 819.884 273.5C819.884 274.393 820.044 275.147 820.364 275.76C820.697 276.373 821.137 276.833 821.684 277.14C822.231 277.433 822.831 277.58 823.484 277.58ZM836.837 267.84C838.17 267.84 839.25 268.247 840.077 269.06C840.904 269.86 841.317 271.02 841.317 272.54V279H839.517V272.8C839.517 271.707 839.244 270.873 838.697 270.3C838.15 269.713 837.404 269.42 836.457 269.42C835.497 269.42 834.73 269.72 834.157 270.32C833.597 270.92 833.317 271.793 833.317 272.94V279H831.497V268.04H833.317V269.6C833.677 269.04 834.164 268.607 834.777 268.3C835.404 267.993 836.09 267.84 836.837 267.84ZM846.51 269.54V276C846.51 276.533 846.623 276.913 846.85 277.14C847.077 277.353 847.47 277.46 848.03 277.46H849.37V279H847.73C846.717 279 845.957 278.767 845.45 278.3C844.943 277.833 844.69 277.067 844.69 276V269.54H843.27V268.04H844.69V265.28H846.51V268.04H849.37V269.54H846.51ZM850.895 273.48C850.895 272.36 851.122 271.38 851.575 270.54C852.028 269.687 852.648 269.027 853.435 268.56C854.235 268.093 855.122 267.86 856.095 267.86C857.055 267.86 857.888 268.067 858.595 268.48C859.302 268.893 859.828 269.413 860.175 270.04V268.04H862.015V279H860.175V276.96C859.815 277.6 859.275 278.133 858.555 278.56C857.848 278.973 857.022 279.18 856.075 279.18C855.102 279.18 854.222 278.94 853.435 278.46C852.648 277.98 852.028 277.307 851.575 276.44C851.122 275.573 850.895 274.587 850.895 273.48ZM860.175 273.5C860.175 272.673 860.008 271.953 859.675 271.34C859.342 270.727 858.888 270.26 858.315 269.94C857.755 269.607 857.135 269.44 856.455 269.44C855.775 269.44 855.155 269.6 854.595 269.92C854.035 270.24 853.588 270.707 853.255 271.32C852.922 271.933 852.755 272.653 852.755 273.48C852.755 274.32 852.922 275.053 853.255 275.68C853.588 276.293 854.035 276.767 854.595 277.1C855.155 277.42 855.775 277.58 856.455 277.58C857.135 277.58 857.755 277.42 858.315 277.1C858.888 276.767 859.342 276.293 859.675 275.68C860.008 275.053 860.175 274.327 860.175 273.5ZM864.411 273.5C864.411 272.367 864.637 271.38 865.091 270.54C865.544 269.687 866.171 269.027 866.971 268.56C867.784 268.093 868.711 267.86 869.751 267.86C871.097 267.86 872.204 268.187 873.071 268.84C873.951 269.493 874.531 270.4 874.811 271.56H872.851C872.664 270.893 872.297 270.367 871.751 269.98C871.217 269.593 870.551 269.4 869.751 269.4C868.711 269.4 867.871 269.76 867.231 270.48C866.591 271.187 866.271 272.193 866.271 273.5C866.271 274.82 866.591 275.84 867.231 276.56C867.871 277.28 868.711 277.64 869.751 277.64C870.551 277.64 871.217 277.453 871.751 277.08C872.284 276.707 872.651 276.173 872.851 275.48H874.811C874.517 276.6 873.931 277.5 873.051 278.18C872.171 278.847 871.071 279.18 869.751 279.18C868.711 279.18 867.784 278.947 866.971 278.48C866.171 278.013 865.544 277.353 865.091 276.5C864.637 275.647 864.411 274.647 864.411 273.5ZM879.459 269.54V276C879.459 276.533 879.573 276.913 879.799 277.14C880.026 277.353 880.419 277.46 880.979 277.46H882.319V279H880.679C879.666 279 878.906 278.767 878.399 278.3C877.893 277.833 877.639 277.067 877.639 276V269.54H876.219V268.04H877.639V265.28H879.459V268.04H882.319V269.54H879.459ZM899.576 268.04V279H897.756V277.38C897.41 277.94 896.923 278.38 896.296 278.7C895.683 279.007 895.003 279.16 894.256 279.16C893.403 279.16 892.636 278.987 891.956 278.64C891.276 278.28 890.736 277.747 890.336 277.04C889.95 276.333 889.756 275.473 889.756 274.46V268.04H891.556V274.22C891.556 275.3 891.83 276.133 892.376 276.72C892.923 277.293 893.67 277.58 894.616 277.58C895.59 277.58 896.356 277.28 896.916 276.68C897.476 276.08 897.756 275.207 897.756 274.06V268.04H899.576ZM906.529 279.18C905.689 279.18 904.936 279.04 904.269 278.76C903.603 278.467 903.076 278.067 902.689 277.56C902.303 277.04 902.089 276.447 902.049 275.78H903.929C903.983 276.327 904.236 276.773 904.689 277.12C905.156 277.467 905.763 277.64 906.509 277.64C907.203 277.64 907.749 277.487 908.149 277.18C908.549 276.873 908.749 276.487 908.749 276.02C908.749 275.54 908.536 275.187 908.109 274.96C907.683 274.72 907.023 274.487 906.129 274.26C905.316 274.047 904.649 273.833 904.129 273.62C903.623 273.393 903.183 273.067 902.809 272.64C902.449 272.2 902.269 271.627 902.269 270.92C902.269 270.36 902.436 269.847 902.769 269.38C903.103 268.913 903.576 268.547 904.189 268.28C904.803 268 905.503 267.86 906.289 267.86C907.503 267.86 908.483 268.167 909.229 268.78C909.976 269.393 910.376 270.233 910.429 271.3H908.609C908.569 270.727 908.336 270.267 907.909 269.92C907.496 269.573 906.936 269.4 906.229 269.4C905.576 269.4 905.056 269.54 904.669 269.82C904.283 270.1 904.089 270.467 904.089 270.92C904.089 271.28 904.203 271.58 904.429 271.82C904.669 272.047 904.963 272.233 905.309 272.38C905.669 272.513 906.163 272.667 906.789 272.84C907.576 273.053 908.216 273.267 908.709 273.48C909.203 273.68 909.623 273.987 909.969 274.4C910.329 274.813 910.516 275.353 910.529 276.02C910.529 276.62 910.363 277.16 910.029 277.64C909.696 278.12 909.223 278.5 908.609 278.78C908.009 279.047 907.316 279.18 906.529 279.18ZM915.459 265.06L915.239 275.06H913.719L913.499 265.06H915.459ZM914.559 279.12C914.212 279.12 913.919 279 913.679 278.76C913.439 278.52 913.319 278.227 913.319 277.88C913.319 277.533 913.439 277.24 913.679 277C913.919 276.76 914.212 276.64 914.559 276.64C914.892 276.64 915.172 276.76 915.399 277C915.639 277.24 915.759 277.533 915.759 277.88C915.759 278.227 915.639 278.52 915.399 278.76C915.172 279 914.892 279.12 914.559 279.12Z" fill="white"/>
<rect x="325" y="330" width="630" height="84" rx="12" fill="white"/>
<g clip-path="url(#clip1_1_128)">
<path d="M381 364H365C363.9 364 363.01 364.9 363.01 366L363 378C363 379.1 363.9 380 365 380H381C382.1 380 383 379.1 383 378V366C383 364.9 382.1 364 381 364ZM381 368L373 373L365 368V366L373 371L381 366V368Z" fill="#25262A"/>
</g>
<path opacity="0.4" d="M395.971 368.032V371.76H400.035V372.96H395.971V376.8H400.515V378H394.515V366.832H400.515V368.032H395.971ZM407.07 369.072C408.137 369.072 409.001 369.397 409.662 370.048C410.323 370.688 410.654 371.616 410.654 372.832V378H409.214V373.04C409.214 372.165 408.995 371.499 408.558 371.04C408.121 370.571 407.523 370.336 406.766 370.336C405.998 370.336 405.385 370.576 404.926 371.056C404.478 371.536 404.254 372.235 404.254 373.152V378H402.798V369.232H404.254V370.48C404.542 370.032 404.931 369.685 405.422 369.44C405.923 369.195 406.473 369.072 407.07 369.072ZM414.888 370.432V375.6C414.888 376.027 414.979 376.331 415.16 376.512C415.342 376.683 415.656 376.768 416.104 376.768H417.176V378H415.864C415.054 378 414.446 377.813 414.04 377.44C413.635 377.067 413.432 376.453 413.432 375.6V370.432H412.296V369.232H413.432V367.024H414.888V369.232H417.176V370.432H414.888ZM427.02 373.28C427.02 373.557 427.004 373.851 426.972 374.16H419.964C420.018 375.024 420.311 375.701 420.844 376.192C421.388 376.672 422.044 376.912 422.812 376.912C423.442 376.912 423.964 376.768 424.38 376.48C424.807 376.181 425.106 375.787 425.276 375.296H426.844C426.61 376.139 426.14 376.827 425.436 377.36C424.732 377.883 423.858 378.144 422.812 378.144C421.98 378.144 421.234 377.957 420.572 377.584C419.922 377.211 419.41 376.683 419.036 376C418.663 375.307 418.476 374.507 418.476 373.6C418.476 372.693 418.658 371.899 419.02 371.216C419.383 370.533 419.89 370.011 420.54 369.648C421.202 369.275 421.959 369.088 422.812 369.088C423.644 369.088 424.38 369.269 425.02 369.632C425.66 369.995 426.151 370.496 426.492 371.136C426.844 371.765 427.02 372.48 427.02 373.28ZM425.516 372.976C425.516 372.421 425.394 371.947 425.148 371.552C424.903 371.147 424.567 370.843 424.14 370.64C423.724 370.427 423.26 370.32 422.748 370.32C422.012 370.32 421.383 370.555 420.86 371.024C420.348 371.493 420.055 372.144 419.98 372.976H425.516ZM430.478 370.656C430.734 370.155 431.097 369.765 431.566 369.488C432.046 369.211 432.628 369.072 433.31 369.072V370.576H432.926C431.294 370.576 430.478 371.461 430.478 373.232V378H429.022V369.232H430.478V370.656ZM446.969 369.232L441.689 382.128H440.185L441.913 377.904L438.377 369.232H439.993L442.745 376.336L445.465 369.232H446.969ZM452.336 378.144C451.515 378.144 450.768 377.957 450.096 377.584C449.435 377.211 448.912 376.683 448.528 376C448.155 375.307 447.968 374.507 447.968 373.6C447.968 372.704 448.16 371.915 448.544 371.232C448.939 370.539 449.472 370.011 450.144 369.648C450.816 369.275 451.568 369.088 452.4 369.088C453.232 369.088 453.984 369.275 454.656 369.648C455.328 370.011 455.856 370.533 456.24 371.216C456.635 371.899 456.832 372.693 456.832 373.6C456.832 374.507 456.63 375.307 456.224 376C455.83 376.683 455.291 377.211 454.608 377.584C453.926 377.957 453.168 378.144 452.336 378.144ZM452.336 376.864C452.859 376.864 453.35 376.741 453.808 376.496C454.267 376.251 454.635 375.883 454.912 375.392C455.2 374.901 455.344 374.304 455.344 373.6C455.344 372.896 455.206 372.299 454.928 371.808C454.651 371.317 454.288 370.955 453.84 370.72C453.392 370.475 452.907 370.352 452.384 370.352C451.851 370.352 451.36 370.475 450.912 370.72C450.475 370.955 450.123 371.317 449.856 371.808C449.59 372.299 449.456 372.896 449.456 373.6C449.456 374.315 449.584 374.917 449.84 375.408C450.107 375.899 450.459 376.267 450.896 376.512C451.334 376.747 451.814 376.864 452.336 376.864ZM466.603 369.232V378H465.147V376.704C464.869 377.152 464.48 377.504 463.979 377.76C463.488 378.005 462.944 378.128 462.347 378.128C461.664 378.128 461.051 377.989 460.507 377.712C459.963 377.424 459.531 376.997 459.211 376.432C458.901 375.867 458.747 375.179 458.747 374.368V369.232H460.187V374.176C460.187 375.04 460.405 375.707 460.843 376.176C461.28 376.635 461.877 376.864 462.635 376.864C463.413 376.864 464.027 376.624 464.475 376.144C464.923 375.664 465.147 374.965 465.147 374.048V369.232H466.603ZM470.597 370.656C470.853 370.155 471.216 369.765 471.685 369.488C472.165 369.211 472.746 369.072 473.429 369.072V370.576H473.045C471.413 370.576 470.597 371.461 470.597 373.232V378H469.141V369.232H470.597V370.656ZM487.535 373.28C487.535 373.557 487.519 373.851 487.487 374.16H480.479C480.533 375.024 480.826 375.701 481.359 376.192C481.903 376.672 482.559 376.912 483.327 376.912C483.957 376.912 484.479 376.768 484.895 376.48C485.322 376.181 485.621 375.787 485.791 375.296H487.359C487.125 376.139 486.655 376.827 485.951 377.36C485.247 377.883 484.373 378.144 483.327 378.144C482.495 378.144 481.749 377.957 481.087 377.584C480.437 377.211 479.925 376.683 479.551 376C479.178 375.307 478.991 374.507 478.991 373.6C478.991 372.693 479.173 371.899 479.535 371.216C479.898 370.533 480.405 370.011 481.055 369.648C481.717 369.275 482.474 369.088 483.327 369.088C484.159 369.088 484.895 369.269 485.535 369.632C486.175 369.995 486.666 370.496 487.007 371.136C487.359 371.765 487.535 372.48 487.535 373.28ZM486.031 372.976C486.031 372.421 485.909 371.947 485.663 371.552C485.418 371.147 485.082 370.843 484.655 370.64C484.239 370.427 483.775 370.32 483.263 370.32C482.527 370.32 481.898 370.555 481.375 371.024C480.863 371.493 480.57 372.144 480.495 372.976H486.031ZM500.081 369.072C500.764 369.072 501.372 369.216 501.905 369.504C502.439 369.781 502.86 370.203 503.169 370.768C503.479 371.333 503.633 372.021 503.633 372.832V378H502.193V373.04C502.193 372.165 501.975 371.499 501.537 371.04C501.111 370.571 500.529 370.336 499.793 370.336C499.036 370.336 498.433 370.581 497.985 371.072C497.537 371.552 497.313 372.251 497.313 373.168V378H495.873V373.04C495.873 372.165 495.655 371.499 495.217 371.04C494.791 370.571 494.209 370.336 493.473 370.336C492.716 370.336 492.113 370.581 491.665 371.072C491.217 371.552 490.993 372.251 490.993 373.168V378H489.537V369.232H490.993V370.496C491.281 370.037 491.665 369.685 492.145 369.44C492.636 369.195 493.175 369.072 493.761 369.072C494.497 369.072 495.148 369.237 495.713 369.568C496.279 369.899 496.7 370.384 496.977 371.024C497.223 370.405 497.628 369.925 498.193 369.584C498.759 369.243 499.388 369.072 500.081 369.072ZM505.558 373.584C505.558 372.688 505.739 371.904 506.102 371.232C506.464 370.549 506.96 370.021 507.59 369.648C508.23 369.275 508.939 369.088 509.718 369.088C510.486 369.088 511.152 369.253 511.718 369.584C512.283 369.915 512.704 370.331 512.982 370.832V369.232H514.454V378H512.982V376.368C512.694 376.88 512.262 377.307 511.686 377.648C511.12 377.979 510.459 378.144 509.702 378.144C508.923 378.144 508.219 377.952 507.59 377.568C506.96 377.184 506.464 376.645 506.102 375.952C505.739 375.259 505.558 374.469 505.558 373.584ZM512.982 373.6C512.982 372.939 512.848 372.363 512.582 371.872C512.315 371.381 511.952 371.008 511.494 370.752C511.046 370.485 510.55 370.352 510.006 370.352C509.462 370.352 508.966 370.48 508.518 370.736C508.07 370.992 507.712 371.365 507.446 371.856C507.179 372.347 507.046 372.923 507.046 373.584C507.046 374.256 507.179 374.843 507.446 375.344C507.712 375.835 508.07 376.213 508.518 376.48C508.966 376.736 509.462 376.864 510.006 376.864C510.55 376.864 511.046 376.736 511.494 376.48C511.952 376.213 512.315 375.835 512.582 375.344C512.848 374.843 512.982 374.261 512.982 373.6ZM517.746 367.808C517.469 367.808 517.234 367.712 517.042 367.52C516.85 367.328 516.754 367.093 516.754 366.816C516.754 366.539 516.85 366.304 517.042 366.112C517.234 365.92 517.469 365.824 517.746 365.824C518.013 365.824 518.237 365.92 518.418 366.112C518.61 366.304 518.706 366.539 518.706 366.816C518.706 367.093 518.61 367.328 518.418 367.52C518.237 367.712 518.013 367.808 517.746 367.808ZM518.45 369.232V378H516.994V369.232H518.45ZM522.468 366.16V378H521.012V366.16H522.468Z" fill="#25262A"/>
<rect x="799" y="342" width="144" height="60" rx="12" fill="#0071E3"/>
<path d="M836.32 377.16C833.12 377.16 831.488 375.752 831.488 373.496V373.4H833.216V373.656C833.216 374.936 833.968 375.576 836.32 375.576C838.368 375.576 839.088 375.128 839.088 374.12C839.088 373.192 838.544 372.84 837.184 372.584L834.56 372.152C832.752 371.832 831.472 371 831.472 369.24C831.472 367.688 832.752 366.12 836.08 366.12C839.216 366.12 840.64 367.688 840.64 369.784V369.88H838.928V369.672C838.928 368.36 838.144 367.704 835.92 367.704C833.968 367.704 833.2 368.184 833.2 369.144C833.2 370.072 833.744 370.376 835.008 370.648L837.616 371.096C839.76 371.48 840.816 372.456 840.816 374.024C840.816 375.656 839.488 377.16 836.32 377.16ZM845.435 377.16C843.195 377.16 842.107 375.672 842.107 373.832V369.048H843.819V373.368C843.819 374.856 844.507 375.608 846.187 375.608C847.947 375.608 848.763 374.712 848.763 372.984V369.048H850.475V377H848.891V374.536H848.795C848.539 375.88 847.483 377.16 845.435 377.16ZM853.708 377H852.124V366.28H853.852V371.208H853.948C854.268 369.864 855.324 368.888 857.228 368.888C859.676 368.888 861.02 370.552 861.02 373.032C861.02 375.48 859.66 377.16 857.132 377.16C855.324 377.16 854.156 376.296 853.82 374.712H853.708V377ZM853.852 373.112C853.852 374.776 854.876 375.576 856.588 375.576C858.332 375.576 859.292 374.936 859.292 373.032C859.292 371.112 858.316 370.456 856.62 370.456C854.828 370.456 853.852 371.288 853.852 372.984V373.112ZM866.058 377.16C863.498 377.16 862.042 376.152 862.042 374.312V374.264H863.77V374.392C863.77 375.432 864.394 375.768 866.058 375.768C867.61 375.768 868.074 375.448 868.074 374.744C868.074 374.088 867.69 373.88 866.554 373.72L864.378 373.432C862.874 373.24 861.962 372.6 861.962 371.272C861.962 369.88 863.226 368.888 865.674 368.888C868.106 368.888 869.578 369.864 869.578 371.752V371.8H867.866V371.704C867.866 370.76 867.386 370.264 865.626 370.264C864.17 370.264 863.658 370.584 863.658 371.336C863.658 371.96 863.978 372.184 865.178 372.344L867.018 372.6C868.906 372.84 869.77 373.48 869.77 374.792C869.77 376.28 868.298 377.16 866.058 377.16ZM875.113 377.16C872.489 377.16 870.777 375.48 870.777 373.032C870.777 370.552 872.489 368.888 875.113 368.888C877.497 368.888 879.241 370.232 879.241 372.216V372.376H877.529V372.28C877.529 371.048 876.633 370.44 875.081 370.44C873.289 370.44 872.489 371.288 872.489 373.032C872.489 374.744 873.289 375.608 875.081 375.608C876.633 375.608 877.529 375 877.529 373.768V373.656H879.241V373.832C879.241 375.816 877.497 377.16 875.113 377.16ZM882.327 377H880.599V369.048H882.183V371.192H882.295C882.535 369.912 883.399 368.888 885.031 368.888C886.839 368.888 887.623 370.184 887.623 371.688V372.728H885.911V372.024C885.911 370.888 885.431 370.36 884.247 370.36C882.887 370.36 882.327 371.112 882.327 372.536V377ZM890.516 368.12H888.788V366.28H890.516V368.12ZM890.516 377H888.788V369.048H890.516V377ZM893.78 377H892.196V366.28H893.924V371.208H894.02C894.34 369.864 895.396 368.888 897.3 368.888C899.748 368.888 901.092 370.552 901.092 373.032C901.092 375.48 899.732 377.16 897.204 377.16C895.396 377.16 894.228 376.296 893.892 374.712H893.78V377ZM893.924 373.112C893.924 374.776 894.948 375.576 896.66 375.576C898.404 375.576 899.364 374.936 899.364 373.032C899.364 371.112 898.388 370.456 896.692 370.456C894.9 370.456 893.924 371.288 893.924 372.984V373.112ZM906.37 377.16C903.762 377.16 902.05 375.688 902.05 373.032C902.05 370.552 903.746 368.888 906.338 368.888C908.802 368.888 910.482 370.248 910.482 372.664C910.482 372.952 910.466 373.176 910.418 373.416H903.666C903.73 374.952 904.482 375.768 906.322 375.768C907.986 375.768 908.674 375.224 908.674 374.28V374.152H910.402V374.296C910.402 375.992 908.738 377.16 906.37 377.16ZM906.306 370.248C904.546 370.248 903.778 371.032 903.682 372.456H908.85V372.424C908.85 370.952 908.002 370.248 906.306 370.248Z" fill="white"/>
</g>
<defs>
<linearGradient id="paint0_linear_1_128" x1="54.5445" y1="0" x2="54.5445" y2="125.919" gradientUnits="userSpaceOnUse">
<stop offset="0.365" stop-color="#C5C5C5"/>
<stop offset="0.96" stop-color="white" stop-opacity="0"/>
</linearGradient>
<linearGradient id="paint1_linear_1_128" x1="54.5446" y1="0" x2="54.5446" y2="125.919" gradientUnits="userSpaceOnUse">
<stop offset="0.365" stop-color="#C5C5C5"/>
<stop offset="0.96" stop-color="white" stop-opacity="0"/>
</linearGradient>
<linearGradient id="paint2_linear_1_128" x1="164.991" y1="239.785" x2="147.889" y2="491.038" gradientUnits="userSpaceOnUse">
<stop offset="0.365" stop-color="#C5C5C5"/>
<stop offset="0.96" stop-color="white" stop-opacity="0"/>
</linearGradient>
<linearGradient id="paint3_linear_1_128" x1="141.398" y1="616.804" x2="158.5" y2="365.552" gradientUnits="userSpaceOnUse">
<stop offset="0.365" stop-color="#C5C5C5"/>
<stop offset="0.96" stop-color="white" stop-opacity="0"/>
</linearGradient>
<linearGradient id="paint4_linear_1_128" x1="118.435" y1="110.408" x2="101.333" y2="361.661" gradientUnits="userSpaceOnUse">
<stop offset="0.365" stop-color="#C5C5C5"/>
<stop offset="0.96" stop-color="white" stop-opacity="0"/>
</linearGradient>
<linearGradient id="paint5_linear_1_128" x1="187.952" y1="746.183" x2="205.054" y2="494.931" gradientUnits="userSpaceOnUse">
<stop offset="0.365" stop-color="#C5C5C5"/>
<stop offset="0.96" stop-color="white" stop-opacity="0"/>
</linearGradient>
<linearGradient id="paint6_linear_1_128" x1="54.5442" y1="0" x2="54.5442" y2="125.919" gradientUnits="userSpaceOnUse">
<stop offset="0.365" stop-color="#C5C5C5"/>
<stop offset="0.96" stop-color="white" stop-opacity="0"/>
</linearGradient>
<linearGradient id="paint7_linear_1_128" x1="54.5443" y1="0" x2="54.5443" y2="125.919" gradientUnits="userSpaceOnUse">
<stop offset="0.365" stop-color="#C5C5C5"/>
<stop offset="0.96" stop-color="white" stop-opacity="0"/>
</linearGradient>
<linearGradient id="paint8_linear_1_128" x1="1166.79" y1="-84.544" x2="1138.41" y2="165.687" gradientUnits="userSpaceOnUse">
<stop offset="0.365" stop-color="#C5C5C5"/>
<stop offset="0.96" stop-color="white" stop-opacity="0"/>
</linearGradient>
<linearGradient id="paint9_linear_1_128" x1="1126.24" y1="291.032" x2="1154.63" y2="40.8013" gradientUnits="userSpaceOnUse">
<stop offset="0.365" stop-color="#C5C5C5"/>
<stop offset="0.96" stop-color="white" stop-opacity="0"/>
</linearGradient>
<linearGradient id="paint10_linear_1_128" x1="1126.11" y1="-215.883" x2="1097.73" y2="34.3481" gradientUnits="userSpaceOnUse">
<stop offset="0.365" stop-color="#C5C5C5"/>
<stop offset="0.96" stop-color="white" stop-opacity="0"/>
</linearGradient>
<linearGradient id="paint11_linear_1_128" x1="1166.93" y1="422.374" x2="1195.31" y2="172.143" gradientUnits="userSpaceOnUse">
<stop offset="0.365" stop-color="#C5C5C5"/>
<stop offset="0.96" stop-color="white" stop-opacity="0"/>
</linearGradient>
<clipPath id="clip0_1_128">
<rect width="1280" height="512" rx="40" fill="white"/>
</clipPath>
<clipPath id="clip1_1_128">
<rect width="24" height="24" fill="white" transform="translate(361 360)"/>
</clipPath>
</defs>
</svg>
