<svg width="72" height="72" viewBox="0 0 72 72" fill="none" xmlns="http://www.w3.org/2000/svg">
<rect width="72" height="72" rx="36" fill="white"/>
<path d="M40 29.3334C40 31.5425 38.2091 33.3334 36 33.3334C33.7908 33.3334 32 31.5425 32 29.3334C32 27.1242 33.7908 25.3334 36 25.3334C38.2091 25.3334 40 27.1242 40 29.3334Z" stroke="#25262A" stroke-width="2" stroke-linecap="round" stroke-linejoin="round"/>
<path d="M33.3333 41.3334C33.3333 43.5425 31.5425 45.3334 29.3333 45.3334C27.1242 45.3334 25.3333 43.5425 25.3333 41.3334C25.3333 39.1242 27.1242 37.3334 29.3333 37.3334C31.5425 37.3334 33.3333 39.1242 33.3333 41.3334Z" stroke="#25262A" stroke-width="2" stroke-linecap="round" stroke-linejoin="round"/>
<path d="M46.6666 41.3334C46.6666 43.5425 44.8758 45.3334 42.6666 45.3334C40.4575 45.3334 38.6666 43.5425 38.6666 41.3334C38.6666 39.1242 40.4575 37.3334 42.6666 37.3334C44.8758 37.3334 46.6666 39.1242 46.6666 41.3334Z" stroke="#25262A" stroke-width="2" stroke-linecap="round" stroke-linejoin="round"/>
</svg>
