<svg width="72" height="73" viewBox="0 0 72 73" fill="none" xmlns="http://www.w3.org/2000/svg">
<rect y="0.5" width="72" height="72" rx="36" fill="#F04037" fill-opacity="0.1"/>
<path d="M37.3467 24.3933L45.2133 27.8866C47.48 28.8866 47.48 30.5399 45.2133 31.5399L37.3467 35.0333C36.4533 35.4333 34.9867 35.4333 34.0933 35.0333L26.2267 31.5399C23.96 30.5399 23.96 28.8866 26.2267 27.8866L34.0933 24.3933C34.9867 23.9933 36.4533 23.9933 37.3467 24.3933Z" stroke="#F04037" stroke-width="2" stroke-linecap="round" stroke-linejoin="round"/>
<path d="M24 35.1666C24 36.2866 24.84 37.58 25.8667 38.0333L34.92 42.06C35.6133 42.3666 36.4 42.3666 37.08 42.06L46.1333 38.0333C47.16 37.58 48 36.2866 48 35.1666" stroke="#F04037" stroke-width="2" stroke-linecap="round" stroke-linejoin="round"/>
<path d="M24 41.8334C24 43.0734 24.7333 44.1934 25.8667 44.7L34.92 48.7267C35.6133 49.0334 36.4 49.0334 37.08 48.7267L46.1333 44.7C47.2667 44.1934 48 43.0734 48 41.8334" stroke="#F04037" stroke-width="2" stroke-linecap="round" stroke-linejoin="round"/>
</svg>
