<svg width="463" height="646" viewBox="0 0 463 646" fill="none" xmlns="http://www.w3.org/2000/svg">
<g clip-path="url(#clip0_1_314)">
<rect width="463" height="646" rx="20" fill="#3887D6"/>
<rect x="72" y="90" width="320" height="567" fill="#0071E3"/>
<g filter="url(#filter0_d_1_314)">
<mask id="path-3-inside-1_1_314" fill="white">
<path d="M312 316C318.627 316 324 321.373 324 328V377C324 383.627 318.627 389 312 389H291.965C291.329 389 290.731 389.303 290.354 389.815L275.33 410.247C274.531 411.334 272.907 411.334 272.107 410.247L257.084 389.815C256.707 389.303 256.109 389 255.473 389H236C229.373 389 224 383.627 224 377V328C224 321.373 229.373 316 236 316H312Z"/>
</mask>
<path d="M312 316C318.627 316 324 321.373 324 328V377C324 383.627 318.627 389 312 389H291.965C291.329 389 290.731 389.303 290.354 389.815L275.33 410.247C274.531 411.334 272.907 411.334 272.107 410.247L257.084 389.815C256.707 389.303 256.109 389 255.473 389H236C229.373 389 224 383.627 224 377V328C224 321.373 229.373 316 236 316H312Z" fill="white"/>
<path d="M312 316V315.5V316ZM324 377H324.5H324ZM236 389V389.5V389ZM224 328H223.5H224ZM257.084 389.815L257.487 389.519L257.084 389.815ZM275.33 410.247L274.927 409.951L275.33 410.247ZM290.354 389.815L290.757 390.111L290.354 389.815ZM312 316V316.5C318.351 316.5 323.5 321.649 323.5 328H324H324.5C324.5 321.096 318.904 315.5 312 315.5V316ZM324 328H323.5V377H324H324.5V328H324ZM324 377H323.5C323.5 383.351 318.351 388.5 312 388.5V389V389.5C318.904 389.5 324.5 383.904 324.5 377H324ZM312 389V388.5H291.965V389V389.5H312V389ZM290.354 389.815L289.951 389.519L274.927 409.951L275.33 410.247L275.733 410.543L290.757 390.111L290.354 389.815ZM272.107 410.247L272.51 409.951L257.487 389.519L257.084 389.815L256.681 390.111L271.705 410.543L272.107 410.247ZM255.473 389V388.5H236V389V389.5H255.473V389ZM236 389V388.5C229.649 388.5 224.5 383.351 224.5 377H224H223.5C223.5 383.904 229.096 389.5 236 389.5V389ZM224 377H224.5V328H224H223.5V377H224ZM224 328H224.5C224.5 321.649 229.649 316.5 236 316.5V316V315.5C229.096 315.5 223.5 321.096 223.5 328H224ZM236 316V316.5H312V316V315.5H236V316ZM257.084 389.815L257.487 389.519C257.016 388.878 256.268 388.5 255.473 388.5V389V389.5C255.95 389.5 256.398 389.727 256.681 390.111L257.084 389.815ZM275.33 410.247L274.927 409.951C274.328 410.766 273.11 410.766 272.51 409.951L272.107 410.247L271.705 410.543C272.704 411.902 274.734 411.902 275.733 410.543L275.33 410.247ZM291.965 389V388.5C291.17 388.5 290.422 388.878 289.951 389.519L290.354 389.815L290.757 390.111C291.039 389.727 291.488 389.5 291.965 389.5V389Z" fill="#9498FF" mask="url(#path-3-inside-1_1_314)"/>
</g>
<path d="M273.998 372.247C286.833 372.247 293.247 363.629 293.247 352.998C293.247 342.368 286.833 333.75 273.998 333.75C261.164 333.75 254.75 342.368 254.75 352.998C254.75 363.629 261.164 372.247 273.998 372.247Z" fill="#FFB02E"/>
<path d="M274 365.375C261.625 365.375 261.625 353 261.625 353H286.375C286.375 353 286.375 365.375 274 365.375Z" fill="#BB1D80"/>
<path d="M263 353.688V353H285V353.687C285 354.447 284.384 355.062 283.625 355.062H264.375C263.616 355.062 263 354.447 263 353.688Z" fill="white"/>
<path d="M256.374 344.407C259.146 347.606 262.834 349.007 264.724 349.548C265.498 349.77 266.311 349.547 266.884 348.982C268.525 347.363 271.833 343.649 272.54 339.409C273.527 333.487 266.102 331.682 263.11 336.562C256.11 333.275 252.408 339.829 256.374 344.407Z" fill="#F70A8D"/>
<path d="M291.624 344.409C288.853 347.607 285.167 349.007 283.277 349.548C282.503 349.77 281.691 349.547 281.117 348.982C279.477 347.364 276.171 343.651 275.464 339.413C274.478 333.494 281.9 331.689 284.891 336.568C291.887 333.282 295.588 339.833 291.624 344.409Z" fill="#F70A8D"/>
<circle cx="324.294" cy="316.294" r="9.20588" fill="#EF1B1B" stroke="#FDEBF6"/>
<path d="M321.031 316.08C320.524 315.81 320.271 315.387 320.271 314.81C320.271 314.519 320.346 314.254 320.497 314.017C320.648 313.775 320.878 313.583 321.185 313.443C321.492 313.297 321.87 313.225 322.317 313.225C322.765 313.225 323.14 313.297 323.442 313.443C323.749 313.583 323.978 313.775 324.129 314.017C324.28 314.254 324.356 314.519 324.356 314.81C324.356 315.101 324.285 315.354 324.145 315.57C324.01 315.786 323.827 315.956 323.595 316.08C323.886 316.22 324.11 316.414 324.267 316.662C324.423 316.905 324.501 317.19 324.501 317.519C324.501 317.902 324.404 318.234 324.21 318.514C324.016 318.789 323.752 319 323.417 319.145C323.088 319.291 322.722 319.363 322.317 319.363C321.913 319.363 321.544 319.291 321.209 319.145C320.88 319 320.619 318.789 320.425 318.514C320.231 318.234 320.133 317.902 320.133 317.519C320.133 317.185 320.212 316.897 320.368 316.654C320.524 316.406 320.745 316.214 321.031 316.08ZM323.013 315.02C323.013 314.799 322.948 314.629 322.819 314.511C322.695 314.387 322.528 314.325 322.317 314.325C322.107 314.325 321.937 314.387 321.808 314.511C321.684 314.635 321.622 314.807 321.622 315.028C321.622 315.238 321.686 315.406 321.816 315.53C321.945 315.648 322.112 315.708 322.317 315.708C322.522 315.708 322.689 315.646 322.819 315.522C322.948 315.398 323.013 315.23 323.013 315.02ZM322.317 316.678C322.064 316.678 321.859 316.748 321.703 316.888C321.546 317.023 321.468 317.212 321.468 317.455C321.468 317.681 321.544 317.867 321.694 318.013C321.851 318.158 322.058 318.231 322.317 318.231C322.576 318.231 322.778 318.158 322.924 318.013C323.075 317.867 323.15 317.681 323.15 317.455C323.15 317.217 323.072 317.029 322.916 316.888C322.765 316.748 322.565 316.678 322.317 316.678ZM326.276 316.08C325.769 315.81 325.516 315.387 325.516 314.81C325.516 314.519 325.591 314.254 325.742 314.017C325.893 313.775 326.122 313.583 326.43 313.443C326.737 313.297 327.114 313.225 327.562 313.225C328.01 313.225 328.384 313.297 328.686 313.443C328.994 313.583 329.223 313.775 329.374 314.017C329.525 314.254 329.6 314.519 329.6 314.81C329.6 315.101 329.53 315.354 329.39 315.57C329.255 315.786 329.072 315.956 328.84 316.08C329.131 316.22 329.355 316.414 329.511 316.662C329.668 316.905 329.746 317.19 329.746 317.519C329.746 317.902 329.649 318.234 329.455 318.514C329.261 318.789 328.996 319 328.662 319.145C328.333 319.291 327.966 319.363 327.562 319.363C327.158 319.363 326.788 319.291 326.454 319.145C326.125 319 325.863 318.789 325.669 318.514C325.475 318.234 325.378 317.902 325.378 317.519C325.378 317.185 325.456 316.897 325.613 316.654C325.769 316.406 325.99 316.214 326.276 316.08ZM328.258 315.02C328.258 314.799 328.193 314.629 328.063 314.511C327.939 314.387 327.772 314.325 327.562 314.325C327.352 314.325 327.182 314.387 327.052 314.511C326.928 314.635 326.866 314.807 326.866 315.028C326.866 315.238 326.931 315.406 327.061 315.53C327.19 315.648 327.357 315.708 327.562 315.708C327.767 315.708 327.934 315.646 328.063 315.522C328.193 315.398 328.258 315.23 328.258 315.02ZM327.562 316.678C327.309 316.678 327.104 316.748 326.947 316.888C326.791 317.023 326.713 317.212 326.713 317.455C326.713 317.681 326.788 317.867 326.939 318.013C327.096 318.158 327.303 318.231 327.562 318.231C327.821 318.231 328.023 318.158 328.169 318.013C328.32 317.867 328.395 317.681 328.395 317.455C328.395 317.217 328.317 317.029 328.161 316.888C328.01 316.748 327.81 316.678 327.562 316.678Z" fill="white"/>
<g filter="url(#filter1_d_1_314)">
<rect x="307" y="299" width="33" height="33" rx="16.5" fill="#A2D95E"/>
<rect x="308.5" y="300.5" width="30" height="30" rx="15" stroke="white" stroke-width="3"/>
<path d="M318.703 312.9C318.703 312.18 318.883 311.52 319.243 310.92C319.603 310.32 320.143 309.847 320.863 309.5C321.583 309.14 322.463 308.96 323.503 308.96C324.53 308.96 325.403 309.14 326.123 309.5C326.856 309.847 327.403 310.32 327.763 310.92C328.123 311.52 328.303 312.18 328.303 312.9C328.303 313.647 328.11 314.307 327.723 314.88C327.35 315.44 326.85 315.873 326.223 316.18C326.983 316.473 327.583 316.94 328.023 317.58C328.463 318.22 328.683 318.987 328.683 319.88C328.683 320.787 328.463 321.58 328.023 322.26C327.583 322.927 326.97 323.447 326.183 323.82C325.396 324.18 324.503 324.36 323.503 324.36C322.503 324.36 321.61 324.18 320.823 323.82C320.05 323.447 319.443 322.927 319.003 322.26C318.563 321.58 318.343 320.787 318.343 319.88C318.343 318.973 318.563 318.2 319.003 317.56C319.443 316.92 320.036 316.46 320.783 316.18C319.396 315.487 318.703 314.393 318.703 312.9ZM320.903 313.2C320.903 313.867 321.143 314.413 321.623 314.84C322.116 315.253 322.743 315.46 323.503 315.46C324.263 315.46 324.89 315.247 325.383 314.82C325.876 314.393 326.123 313.847 326.123 313.18C326.123 312.433 325.89 311.86 325.423 311.46C324.956 311.06 324.316 310.86 323.503 310.86C322.703 310.86 322.07 311.06 321.603 311.46C321.136 311.86 320.903 312.44 320.903 313.2ZM320.523 319.8C320.523 320.6 320.79 321.247 321.323 321.74C321.856 322.22 322.583 322.46 323.503 322.46C324.41 322.46 325.123 322.213 325.643 321.72C326.176 321.227 326.443 320.587 326.443 319.8C326.443 318.96 326.176 318.313 325.643 317.86C325.11 317.407 324.396 317.18 323.503 317.18C322.623 317.18 321.903 317.4 321.343 317.84C320.796 318.28 320.523 318.933 320.523 319.8Z" fill="#0071E3"/>
</g>
</g>
<defs>
<filter id="filter0_d_1_314" x="200" y="300" width="148" height="143.062" filterUnits="userSpaceOnUse" color-interpolation-filters="sRGB">
<feFlood flood-opacity="0" result="BackgroundImageFix"/>
<feColorMatrix in="SourceAlpha" type="matrix" values="0 0 0 0 0 0 0 0 0 0 0 0 0 0 0 0 0 0 127 0" result="hardAlpha"/>
<feOffset dy="8"/>
<feGaussianBlur stdDeviation="12"/>
<feComposite in2="hardAlpha" operator="out"/>
<feColorMatrix type="matrix" values="0 0 0 0 0 0 0 0 0 0 0 0 0 0 0 0 0 0 0.1 0"/>
<feBlend mode="normal" in2="BackgroundImageFix" result="effect1_dropShadow_1_314"/>
<feBlend mode="normal" in="SourceGraphic" in2="effect1_dropShadow_1_314" result="shape"/>
</filter>
<filter id="filter1_d_1_314" x="303" y="299" width="41" height="45" filterUnits="userSpaceOnUse" color-interpolation-filters="sRGB">
<feFlood flood-opacity="0" result="BackgroundImageFix"/>
<feColorMatrix in="SourceAlpha" type="matrix" values="0 0 0 0 0 0 0 0 0 0 0 0 0 0 0 0 0 0 127 0" result="hardAlpha"/>
<feOffset dy="8"/>
<feGaussianBlur stdDeviation="2"/>
<feComposite in2="hardAlpha" operator="out"/>
<feColorMatrix type="matrix" values="0 0 0 0 0 0 0 0 0 0 0 0 0 0 0 0 0 0 0.1 0"/>
<feBlend mode="normal" in2="BackgroundImageFix" result="effect1_dropShadow_1_314"/>
<feBlend mode="normal" in="SourceGraphic" in2="effect1_dropShadow_1_314" result="shape"/>
</filter>
<clipPath id="clip0_1_314">
<rect width="463" height="646" rx="20" fill="white"/>
</clipPath>
</defs>
</svg>
