<svg width="19" height="18" viewBox="0 0 19 18" fill="none" xmlns="http://www.w3.org/2000/svg">
<path d="M11.4383 1.5H13.7927C14.2988 1.5 14.7808 1.71917 15.117 2.10223L17.5521 4.87624C18.1172 5.52001 18.1508 6.47958 17.6322 7.1623L11.0708 15.7997C10.3615 16.7334 8.97116 16.7334 8.26186 15.7997L1.70047 7.1623C1.18185 6.47958 1.21547 5.52001 1.78059 4.87624L4.21566 2.10223C4.55192 1.71917 5.03389 1.5 5.54002 1.5H8.09129M11.4383 1.5L13.2102 5.98571M11.4383 1.5H8.09129M13.2102 5.98571H17.64M13.2102 5.98571L9.66634 16.3028L6.12248 5.98571M13.2102 5.98571H6.12248M8.09129 1.5L6.12248 5.98571M1.69264 5.98571H6.12248" stroke="white" stroke-width="1.25" stroke-linecap="round" stroke-linejoin="round"/>
</svg>
