<svg width="116" height="49" viewBox="0 0 116 49" fill="none" xmlns="http://www.w3.org/2000/svg">
<path d="M49.2306 26.1845C49.2306 31.6187 44.9805 35.623 39.7647 35.623C34.5489 35.623 30.2988 31.6187 30.2988 26.1845C30.2988 20.7121 34.5489 16.7461 39.7647 16.7461C44.9805 16.7461 49.2306 20.7121 49.2306 26.1845ZM45.0869 26.1845C45.0869 22.7887 42.6236 20.4653 39.7647 20.4653C36.9058 20.4653 34.4425 22.7887 34.4425 26.1845C34.4425 29.5463 36.9058 31.9038 39.7647 31.9038C42.6236 31.9038 45.0869 29.542 45.0869 26.1845Z" fill="#8A8A8A"/>
<path d="M69.6515 26.1845C69.6515 31.6187 65.4014 35.623 60.1856 35.623C54.9698 35.623 50.7197 31.6187 50.7197 26.1845C50.7197 20.7163 54.9698 16.7461 60.1856 16.7461C65.4014 16.7461 69.6515 20.7121 69.6515 26.1845ZM65.5078 26.1845C65.5078 22.7887 63.0445 20.4653 60.1856 20.4653C57.3267 20.4653 54.8634 22.7887 54.8634 26.1845C54.8634 29.5463 57.3267 31.9038 60.1856 31.9038C63.0445 31.9038 65.5078 29.542 65.5078 26.1845Z" fill="#8A8A8A"/>
<path d="M89.2212 17.3163V34.2613C89.2212 41.2316 85.1115 44.0785 80.2531 44.0785C75.6797 44.0785 72.9272 41.0188 71.8891 38.5167L75.4968 37.0145C76.1392 38.5507 77.7133 40.3635 80.2489 40.3635C83.3588 40.3635 85.286 38.4443 85.286 34.8315V33.474H85.1413C84.2139 34.6187 82.4271 35.6187 80.1723 35.6187C75.4542 35.6187 71.1318 31.508 71.1318 26.2186C71.1318 20.8908 75.4542 16.7461 80.1723 16.7461C82.4228 16.7461 84.2096 17.7461 85.1413 18.8567H85.286V17.3205H89.2212V17.3163ZM85.5795 26.2186C85.5795 22.8951 83.363 20.4653 80.5424 20.4653C77.6835 20.4653 75.2883 22.8951 75.2883 26.2186C75.2883 29.508 77.6835 31.9038 80.5424 31.9038C83.363 31.9038 85.5795 29.508 85.5795 26.2186Z" fill="#8A8A8A"/>
<path d="M95.7096 7.38431V35.0444H91.668V7.38431H95.7096Z" fill="#8A8A8A"/>
<path d="M111.459 29.291L114.675 31.4357C113.637 32.9719 111.135 35.6187 106.813 35.6187C101.453 35.6187 97.4492 31.474 97.4492 26.1803C97.4492 20.5674 101.487 16.7418 106.349 16.7418C111.246 16.7418 113.641 20.6398 114.424 22.7462L114.854 23.8185L102.24 29.0442C103.205 30.9378 104.707 31.9038 106.813 31.9038C108.923 31.9038 110.387 30.8655 111.459 29.291ZM101.559 25.8952L109.991 22.393C109.527 21.2142 108.132 20.3929 106.49 20.3929C104.384 20.3929 101.453 22.2526 101.559 25.8952Z" fill="#8A8A8A"/>
<path d="M15 23.729V19.7247H28.4905C28.6223 20.4226 28.6904 21.2481 28.6904 22.1417C28.6904 25.1461 27.8693 28.861 25.2231 31.5079C22.6493 34.1888 19.3607 35.6186 15.0043 35.6186C6.92955 35.6186 0.139648 29.0397 0.139648 20.963C0.139648 12.8863 6.92955 6.30743 15.0043 6.30743C19.4713 6.30743 22.6535 8.06066 25.0445 10.3458L22.2196 13.1714C20.5051 11.5628 18.1822 10.3118 15 10.3118C9.10351 10.3118 4.49182 15.065 4.49182 20.963C4.49182 26.861 9.10351 31.6143 15 31.6143C18.8246 31.6143 21.0029 30.0781 22.3983 28.6823C23.5299 27.5504 24.2744 25.9333 24.568 23.7248L15 23.729Z" fill="#8A8A8A"/>
</svg>
