<svg width="171" height="28" viewBox="0 0 171 28" fill="none" xmlns="http://www.w3.org/2000/svg">
<rect x="9.5" y="4.5" width="15" height="15" stroke="#8A8A8A" stroke-width="3"/>
<rect x="1.5" y="11.5" width="15" height="15" stroke="#8A8A8A" stroke-width="3"/>
<path d="M46.024 20.744C47.112 20.744 47.904 20.56 48.4 20.192C48.896 19.824 49.144 19.304 49.144 18.632C49.144 18.232 49.056 17.888 48.88 17.6C48.72 17.312 48.48 17.056 48.16 16.832C47.856 16.592 47.48 16.376 47.032 16.184C46.584 15.976 46.072 15.776 45.496 15.584C44.92 15.376 44.36 15.152 43.816 14.912C43.288 14.656 42.816 14.344 42.4 13.976C42 13.608 41.672 13.168 41.416 12.656C41.176 12.144 41.056 11.528 41.056 10.808C41.056 9.304 41.576 8.128 42.616 7.28C43.656 6.416 45.072 5.984 46.864 5.984C47.904 5.984 48.824 6.104 49.624 6.344C50.44 6.568 51.08 6.816 51.544 7.088L50.608 9.536C50.064 9.232 49.464 9 48.808 8.84C48.168 8.68 47.504 8.6 46.816 8.6C46 8.6 45.36 8.768 44.896 9.104C44.448 9.44 44.224 9.912 44.224 10.52C44.224 10.888 44.296 11.208 44.44 11.48C44.6 11.736 44.816 11.968 45.088 12.176C45.376 12.384 45.704 12.576 46.072 12.752C46.456 12.928 46.872 13.096 47.32 13.256C48.104 13.544 48.8 13.84 49.408 14.144C50.032 14.432 50.552 14.784 50.968 15.2C51.4 15.6 51.728 16.08 51.952 16.64C52.176 17.184 52.288 17.848 52.288 18.632C52.288 20.136 51.752 21.304 50.68 22.136C49.624 22.952 48.072 23.36 46.024 23.36C45.336 23.36 44.704 23.312 44.128 23.216C43.568 23.136 43.064 23.032 42.616 22.904C42.184 22.776 41.808 22.648 41.488 22.52C41.168 22.376 40.912 22.248 40.72 22.136L41.608 19.664C42.04 19.904 42.624 20.144 43.36 20.384C44.096 20.624 44.984 20.744 46.024 20.744ZM59.2249 20.96C60.1209 20.96 60.8009 20.912 61.2649 20.816V17.6C61.1049 17.552 60.8729 17.504 60.5689 17.456C60.2649 17.408 59.9289 17.384 59.5609 17.384C59.2409 17.384 58.9129 17.408 58.5769 17.456C58.2569 17.504 57.9609 17.592 57.6889 17.72C57.4329 17.848 57.2249 18.032 57.0649 18.272C56.9049 18.496 56.8249 18.784 56.8249 19.136C56.8249 19.824 57.0409 20.304 57.4729 20.576C57.9049 20.832 58.4889 20.96 59.2249 20.96ZM58.9849 10.136C59.9449 10.136 60.7529 10.256 61.4089 10.496C62.0649 10.736 62.5849 11.072 62.9689 11.504C63.3689 11.936 63.6489 12.464 63.8089 13.088C63.9849 13.696 64.0729 14.368 64.0729 15.104V22.712C63.6249 22.808 62.9449 22.92 62.0329 23.048C61.1369 23.192 60.1209 23.264 58.9849 23.264C58.2329 23.264 57.5449 23.192 56.9209 23.048C56.2969 22.904 55.7609 22.672 55.3129 22.352C54.8809 22.032 54.5369 21.616 54.2809 21.104C54.0409 20.592 53.9209 19.96 53.9209 19.208C53.9209 18.488 54.0569 17.88 54.3289 17.384C54.6169 16.888 55.0009 16.488 55.4809 16.184C55.9609 15.864 56.5129 15.64 57.1369 15.512C57.7769 15.368 58.4409 15.296 59.1289 15.296C59.4489 15.296 59.7849 15.32 60.1369 15.368C60.4889 15.4 60.8649 15.464 61.2649 15.56V15.08C61.2649 14.744 61.2249 14.424 61.1449 14.12C61.0649 13.816 60.9209 13.552 60.7129 13.328C60.5209 13.088 60.2569 12.904 59.9209 12.776C59.6009 12.648 59.1929 12.584 58.6969 12.584C58.0249 12.584 57.4089 12.632 56.8489 12.728C56.2889 12.824 55.8329 12.936 55.4809 13.064L55.1209 10.712C55.4889 10.584 56.0249 10.456 56.7289 10.328C57.4329 10.2 58.1849 10.136 58.9849 10.136ZM71.9973 23.24C71.1333 23.224 70.4133 23.128 69.8373 22.952C69.2773 22.776 68.8293 22.528 68.4933 22.208C68.1573 21.872 67.9173 21.464 67.7733 20.984C67.6453 20.488 67.5813 19.928 67.5813 19.304V4.856L70.4853 4.376V18.752C70.4853 19.104 70.5093 19.4 70.5573 19.64C70.6213 19.88 70.7253 20.088 70.8693 20.264C71.0133 20.424 71.2053 20.552 71.4453 20.648C71.7013 20.728 72.0213 20.792 72.4053 20.84L71.9973 23.24ZM74.0583 16.784C74.0583 15.68 74.2183 14.712 74.5383 13.88C74.8743 13.048 75.3143 12.36 75.8583 11.816C76.4023 11.256 77.0263 10.84 77.7303 10.568C78.4343 10.28 79.1543 10.136 79.8903 10.136C81.6183 10.136 82.9623 10.672 83.9223 11.744C84.8983 12.816 85.3863 14.416 85.3863 16.544C85.3863 16.704 85.3783 16.888 85.3623 17.096C85.3623 17.288 85.3543 17.464 85.3383 17.624H77.0583C77.1383 18.632 77.4903 19.416 78.1143 19.976C78.7543 20.52 79.6743 20.792 80.8743 20.792C81.5783 20.792 82.2183 20.728 82.7943 20.6C83.3863 20.472 83.8503 20.336 84.1863 20.192L84.5703 22.568C84.4103 22.648 84.1863 22.736 83.8983 22.832C83.6263 22.912 83.3063 22.984 82.9383 23.048C82.5863 23.128 82.2023 23.192 81.7863 23.24C81.3703 23.288 80.9463 23.312 80.5143 23.312C79.4103 23.312 78.4503 23.152 77.6343 22.832C76.8183 22.496 76.1463 22.04 75.6183 21.464C75.0903 20.872 74.6983 20.184 74.4423 19.4C74.1863 18.6 74.0583 17.728 74.0583 16.784ZM82.4823 15.488C82.4823 15.088 82.4263 14.712 82.3143 14.36C82.2023 13.992 82.0343 13.68 81.8103 13.424C81.6023 13.152 81.3383 12.944 81.0183 12.8C80.7143 12.64 80.3463 12.56 79.9143 12.56C79.4663 12.56 79.0743 12.648 78.7383 12.824C78.4023 12.984 78.1143 13.2 77.8743 13.472C77.6503 13.744 77.4743 14.056 77.3463 14.408C77.2183 14.76 77.1303 15.12 77.0823 15.488H82.4823ZM91.6092 20.912C92.3772 20.912 92.9372 20.824 93.2892 20.648C93.6412 20.456 93.8172 20.136 93.8172 19.688C93.8172 19.272 93.6252 18.928 93.2412 18.656C92.8732 18.384 92.2572 18.088 91.3932 17.768C90.8652 17.576 90.3772 17.376 89.9292 17.168C89.4972 16.944 89.1212 16.688 88.8012 16.4C88.4812 16.112 88.2252 15.768 88.0332 15.368C87.8572 14.952 87.7692 14.448 87.7692 13.856C87.7692 12.704 88.1932 11.8 89.0412 11.144C89.8892 10.472 91.0412 10.136 92.4972 10.136C93.2332 10.136 93.9372 10.208 94.6092 10.352C95.2812 10.48 95.7852 10.608 96.1212 10.736L95.5932 13.088C95.2732 12.944 94.8652 12.816 94.3692 12.704C93.8732 12.576 93.2972 12.512 92.6412 12.512C92.0492 12.512 91.5692 12.616 91.2012 12.824C90.8332 13.016 90.6492 13.32 90.6492 13.736C90.6492 13.944 90.6812 14.128 90.7452 14.288C90.8252 14.448 90.9532 14.6 91.1292 14.744C91.3052 14.872 91.5372 15.008 91.8252 15.152C92.1132 15.28 92.4652 15.416 92.8812 15.56C93.5692 15.816 94.1532 16.072 94.6332 16.328C95.1132 16.568 95.5052 16.848 95.8092 17.168C96.1292 17.472 96.3612 17.824 96.5052 18.224C96.6492 18.624 96.7212 19.104 96.7212 19.664C96.7212 20.864 96.2732 21.776 95.3772 22.4C94.4972 23.008 93.2332 23.312 91.5852 23.312C90.4812 23.312 89.5932 23.216 88.9212 23.024C88.2492 22.848 87.7772 22.704 87.5052 22.592L88.0092 20.168C88.4412 20.344 88.9532 20.512 89.5452 20.672C90.1532 20.832 90.8412 20.912 91.6092 20.912ZM99.5779 23V6.368H110.09V8.936H102.602V13.184H109.25V15.752H102.602V23H99.5779ZM122.41 22.616C121.85 22.76 121.122 22.904 120.226 23.048C119.33 23.208 118.346 23.288 117.274 23.288C116.266 23.288 115.418 23.144 114.73 22.856C114.058 22.568 113.514 22.168 113.098 21.656C112.698 21.144 112.41 20.536 112.234 19.832C112.058 19.112 111.97 18.328 111.97 17.48V10.448H114.874V17.024C114.874 18.368 115.066 19.328 115.45 19.904C115.85 20.48 116.538 20.768 117.514 20.768C117.866 20.768 118.234 20.752 118.618 20.72C119.018 20.688 119.314 20.648 119.506 20.6V10.448H122.41V22.616ZM129.25 20.912C130.018 20.912 130.578 20.824 130.93 20.648C131.282 20.456 131.458 20.136 131.458 19.688C131.458 19.272 131.266 18.928 130.882 18.656C130.514 18.384 129.898 18.088 129.034 17.768C128.506 17.576 128.018 17.376 127.57 17.168C127.138 16.944 126.762 16.688 126.442 16.4C126.122 16.112 125.866 15.768 125.674 15.368C125.498 14.952 125.41 14.448 125.41 13.856C125.41 12.704 125.834 11.8 126.682 11.144C127.53 10.472 128.682 10.136 130.138 10.136C130.874 10.136 131.578 10.208 132.25 10.352C132.922 10.48 133.426 10.608 133.762 10.736L133.234 13.088C132.914 12.944 132.506 12.816 132.01 12.704C131.514 12.576 130.938 12.512 130.282 12.512C129.69 12.512 129.21 12.616 128.842 12.824C128.474 13.016 128.29 13.32 128.29 13.736C128.29 13.944 128.322 14.128 128.386 14.288C128.466 14.448 128.594 14.6 128.77 14.744C128.946 14.872 129.178 15.008 129.466 15.152C129.754 15.28 130.106 15.416 130.522 15.56C131.21 15.816 131.794 16.072 132.274 16.328C132.754 16.568 133.146 16.848 133.45 17.168C133.77 17.472 134.002 17.824 134.146 18.224C134.29 18.624 134.362 19.104 134.362 19.664C134.362 20.864 133.914 21.776 133.018 22.4C132.138 23.008 130.874 23.312 129.226 23.312C128.122 23.312 127.234 23.216 126.562 23.024C125.89 22.848 125.418 22.704 125.146 22.592L125.65 20.168C126.082 20.344 126.594 20.512 127.186 20.672C127.794 20.832 128.482 20.912 129.25 20.912ZM140.003 23H137.099V10.448H140.003V23ZM140.315 6.776C140.315 7.32 140.139 7.752 139.787 8.072C139.435 8.392 139.019 8.552 138.539 8.552C138.043 8.552 137.619 8.392 137.267 8.072C136.915 7.752 136.739 7.32 136.739 6.776C136.739 6.216 136.915 5.776 137.267 5.456C137.619 5.136 138.043 4.976 138.539 4.976C139.019 4.976 139.435 5.136 139.787 5.456C140.139 5.776 140.315 6.216 140.315 6.776ZM155.059 16.712C155.059 17.704 154.915 18.608 154.627 19.424C154.339 20.24 153.931 20.936 153.403 21.512C152.875 22.088 152.235 22.536 151.483 22.856C150.747 23.176 149.931 23.336 149.035 23.336C148.139 23.336 147.323 23.176 146.587 22.856C145.851 22.536 145.219 22.088 144.691 21.512C144.163 20.936 143.747 20.24 143.443 19.424C143.155 18.608 143.011 17.704 143.011 16.712C143.011 15.72 143.155 14.824 143.443 14.024C143.747 13.208 144.163 12.512 144.691 11.936C145.235 11.36 145.875 10.92 146.611 10.616C147.347 10.296 148.155 10.136 149.035 10.136C149.915 10.136 150.723 10.296 151.459 10.616C152.211 10.92 152.851 11.36 153.379 11.936C153.907 12.512 154.315 13.208 154.603 14.024C154.907 14.824 155.059 15.72 155.059 16.712ZM152.083 16.712C152.083 15.464 151.811 14.48 151.267 13.76C150.739 13.024 149.995 12.656 149.035 12.656C148.075 12.656 147.323 13.024 146.779 13.76C146.251 14.48 145.987 15.464 145.987 16.712C145.987 17.976 146.251 18.976 146.779 19.712C147.323 20.448 148.075 20.816 149.035 20.816C149.995 20.816 150.739 20.448 151.267 19.712C151.811 18.976 152.083 17.976 152.083 16.712ZM158.051 10.856C158.611 10.696 159.339 10.544 160.235 10.4C161.131 10.256 162.123 10.184 163.211 10.184C164.235 10.184 165.091 10.328 165.779 10.616C166.467 10.888 167.011 11.28 167.411 11.792C167.827 12.288 168.115 12.896 168.275 13.616C168.451 14.32 168.539 15.096 168.539 15.944V23H165.635V16.4C165.635 15.728 165.587 15.16 165.491 14.696C165.411 14.216 165.267 13.832 165.059 13.544C164.867 13.24 164.595 13.024 164.243 12.896C163.907 12.752 163.491 12.68 162.995 12.68C162.627 12.68 162.243 12.704 161.843 12.752C161.443 12.8 161.147 12.84 160.955 12.872V23H158.051V10.856Z" fill="#8A8A8A"/>
</svg>
