<svg width="190" height="51" viewBox="0 0 190 51" fill="none" xmlns="http://www.w3.org/2000/svg">
<path d="M79.2341 30.7605V23.2091C79.2341 23.012 79.1019 22.8808 78.9038 22.8808H76.3932V19.9258H78.9038C79.1019 19.9258 79.2341 19.7945 79.2341 19.5975V14.8698H82.8016V19.5975C82.8016 19.7945 82.9338 19.9258 83.132 19.9258H86.6334V22.8808H83.132C82.9338 22.8808 82.8016 23.012 82.8016 23.2091V29.9069C82.8016 33.0588 83.9247 33.3214 85.3782 33.3214C85.9067 33.3214 86.6995 33.2557 87.1619 33.19V36.2762C86.5674 36.3419 85.5764 36.4733 84.4532 36.4733C83.0658 36.4076 79.2341 36.4076 79.2341 30.7605ZM176.219 32.5991L179.125 31.0888C179.786 32.5991 181.041 33.584 182.495 33.584C183.618 33.584 184.873 33.1243 184.873 31.7454C184.873 30.8262 184.279 30.3008 182.891 29.8412L180.909 29.1846C178.134 28.3309 176.747 26.755 176.747 24.5224C176.747 21.6988 179.125 19.5975 182.363 19.5975C184.939 19.5975 187.119 20.9765 188.176 23.1434L185.27 24.7193C184.609 23.3404 183.552 22.5525 182.297 22.5525C181.041 22.5525 180.182 23.2091 180.182 24.1941C180.182 25.0476 180.843 25.7044 182.164 26.0982L184.146 26.755C187.053 27.6743 188.441 29.2501 188.441 31.4171C188.441 34.8318 185.468 36.6047 182.495 36.6047C179.522 36.539 177.143 35.0287 176.219 32.5991ZM165.252 29.6441C165.186 29.7098 165.12 29.7755 165.12 29.8412V36.145H161.486V12.834H165.12V25.573C165.12 25.7044 165.186 25.8356 165.318 25.8356C165.45 25.9013 165.582 25.8356 165.648 25.7699L171.528 19.8601H175.954L169.083 26.755C168.951 26.8862 168.951 27.0176 169.083 27.1489L176.549 36.145H172.122L166.375 29.0532C166.309 28.9875 166.243 28.9218 166.177 28.9218C166.111 28.9218 166.044 28.9218 165.978 28.9875L165.252 29.6441ZM159.702 22.0928L157.39 24.2597C156.069 23.2748 154.747 22.8151 153.294 22.8151C150.255 22.8151 148.008 25.0476 148.008 28.0683C148.008 31.0888 150.255 33.3214 153.294 33.3214C154.615 33.3214 156.002 32.8617 157.456 31.8768L159.504 34.0437C156.531 36.2107 154.945 36.6047 152.897 36.6047C150.453 36.6047 148.273 35.751 146.687 34.175C145.168 32.6648 144.309 30.4321 144.309 28.0683C144.309 23.1434 147.942 19.5318 152.963 19.5318C154.615 19.5318 157.059 19.7945 159.702 22.0928ZM142.657 15.0667C142.657 16.2487 141.666 17.2337 140.477 17.2337C139.288 17.2337 138.297 16.2487 138.297 15.0667C138.297 13.8847 139.288 12.8997 140.477 12.8997C141.666 12.8997 142.657 13.8847 142.657 15.0667ZM142.327 36.145H138.693V19.9258H142.327V36.145ZM130.765 29.0532V36.2107H127.132V19.9915H130.699V21.9614C130.699 22.0928 130.765 22.2242 130.897 22.2897C131.03 22.3554 131.162 22.2897 131.228 22.1585C132.153 20.6482 133.87 19.6632 135.72 19.6632C135.985 19.6632 136.183 19.6632 136.315 19.7289V23.406C136.117 23.3404 135.786 23.3404 135.456 23.3404C132.549 23.2748 130.765 25.5073 130.765 29.0532ZM111.276 28.0683C111.276 25.1133 113.522 22.8151 116.429 22.8151C119.336 22.8151 121.582 25.1133 121.582 28.0683C121.582 31.0231 119.336 33.3214 116.429 33.3214C113.522 33.3214 111.276 31.0231 111.276 28.0683ZM111.606 34.2407C111.672 34.2407 111.672 34.2407 111.738 34.2407C111.804 34.2407 111.937 34.3064 112.003 34.372C113.258 35.8167 115.108 36.6047 117.222 36.6047C121.714 36.6047 125.15 32.8617 125.15 28.0683C125.15 25.7044 124.357 23.6031 122.837 21.9614C121.384 20.3855 119.336 19.5318 117.156 19.5318C115.108 19.5318 113.192 20.3855 111.937 21.8957C111.871 21.9614 111.738 22.0271 111.606 21.9614C111.474 21.8957 111.408 21.8302 111.408 21.6988V12.8997H107.774V36.2107H111.408V34.569C111.408 34.372 111.474 34.3064 111.606 34.2407ZM96.5432 33.3214C93.7025 33.3214 91.3901 31.0231 91.3901 28.0683C91.3901 25.1133 93.6365 22.8151 96.5432 22.8151C99.4501 22.8151 101.696 25.1133 101.696 28.0683C101.696 31.0231 99.3841 33.3214 96.5432 33.3214ZM105.066 36.145V19.9258H101.498V21.5674C101.498 21.6988 101.432 21.8302 101.3 21.8302C101.168 21.8957 101.036 21.8302 100.97 21.7645C99.7806 20.3198 97.9307 19.5318 95.7505 19.5318C91.2581 19.5318 87.8226 23.2748 87.8226 28.0683C87.8226 32.8617 91.3241 36.6047 95.7505 36.6047C97.7985 36.6047 99.7144 35.751 100.97 34.2407C101.036 34.1094 101.168 34.1094 101.3 34.175C101.432 34.2407 101.498 34.3064 101.498 34.4377V36.2107H105.066V36.145ZM65.9549 33.3214C63.114 33.3214 60.8018 31.0231 60.8018 28.0683C60.8018 25.1133 63.048 22.8151 65.9549 22.8151C68.7956 22.8151 71.108 25.1133 71.108 28.0683C71.108 31.0231 68.7956 33.3214 65.9549 33.3214ZM74.4774 36.145V19.9258H70.9098V21.5674C70.9098 21.6988 70.8438 21.8302 70.7116 21.8302C70.5795 21.8957 70.4473 21.8302 70.3813 21.7645C69.1921 20.3198 67.3422 19.5318 65.1621 19.5318C60.6696 19.5318 57.2342 23.2748 57.2342 28.0683C57.2342 32.8617 60.7357 36.6047 65.1621 36.6047C67.2101 36.6047 69.1261 35.751 70.3813 34.2407C70.4473 34.1094 70.5795 34.1094 70.7116 34.175C70.8438 34.2407 70.9098 34.3064 70.9098 34.4377V36.2107H74.4774V36.145ZM46.6637 33.3214C43.7568 33.3214 41.5106 31.0231 41.5106 28.0683C41.5106 25.1133 43.7568 22.8151 46.6637 22.8151C49.5045 22.8151 51.8168 25.1133 51.8168 28.0683C51.8168 31.0231 49.5045 33.3214 46.6637 33.3214ZM55.1862 36.145V12.8997H51.5526V21.6331C51.5526 21.7645 51.4865 21.8957 51.3544 21.8957C51.2222 21.9614 51.0901 21.8957 51.024 21.8302C49.7688 20.3855 47.9189 19.5975 45.8048 19.5975C41.3124 19.5975 37.877 23.3404 37.877 28.134C37.877 30.4978 38.6697 32.5991 40.1892 34.2407C41.6427 35.8167 43.6907 36.6702 45.8709 36.6702C47.9189 36.6702 49.8348 35.8167 51.0901 34.3064C51.1562 34.2407 51.2883 34.175 51.4204 34.2407C51.5526 34.3064 51.6186 34.3721 51.6186 34.5034V36.2107H55.1862V36.145Z" fill="#8A8A8A"/>
<path d="M28.6796 22.0599L15.1137 29.7559L0.682846 21.556L0 21.9224V27.8777L15.1137 36.4901L28.6796 28.7939V31.9548L15.1137 39.651L0.682846 31.4509L0 31.8174V32.8253L15.1137 41.4375L30.2729 32.8253V26.8699L29.5901 26.5034L15.1137 34.7035L1.59327 27.0073V23.8922L15.1137 31.5426L30.2729 22.9302V17.0665L29.499 16.6542L15.1137 24.8084L2.3216 17.5246L15.1137 10.2866L25.675 16.2419L26.631 15.738V15.005L15.1137 8.5L0 17.0665V17.9827L15.1137 26.595L28.6796 18.8989V22.0599Z" fill="#8A8A8A"/>
</svg>
