<svg width="167" height="48" viewBox="0 0 167 48" fill="none" xmlns="http://www.w3.org/2000/svg">
<g clip-path="url(#clip0_110_6933)">
<path d="M6.7473 30.5281C6.44754 29.6186 6.29883 28.4707 6.29883 26.9272C6.29883 25.3831 6.44754 24.2328 6.7473 23.3257C7.58475 20.7229 9.80316 19.3008 12.7079 19.3008C14.8652 19.3008 16.5733 20.1787 17.7128 21.5711C17.8009 21.6913 17.8306 21.8727 17.6825 21.9934L15.7959 23.6582C15.6454 23.7801 15.4961 23.7498 15.3755 23.5987C14.6557 22.7821 13.907 22.3271 12.7085 22.3271C11.4209 22.3271 10.433 22.9629 10.0125 24.234C9.77458 24.962 9.71334 25.8084 9.71334 26.9278C9.71334 28.0472 9.774 28.9245 10.0125 29.6513C10.4324 30.8909 11.4209 31.5267 12.7085 31.5267C13.907 31.5267 14.6557 31.0723 15.3755 30.2574C15.4961 30.104 15.6454 30.104 15.7959 30.2253L17.6825 31.8901C17.8306 32.0109 17.8009 32.1625 17.7128 32.3142C16.5739 33.6768 14.8657 34.5536 12.7079 34.5536C9.80316 34.5524 7.58475 33.1291 6.7473 30.5281Z" fill="#8A8A8A"/>
<path d="M72.2043 30.5281C71.9046 29.6186 71.7559 28.4707 71.7559 26.9272C71.7559 25.3831 71.9046 24.2328 72.2043 23.3257C73.0435 20.7229 75.2597 19.3008 78.1644 19.3008C80.3222 19.3008 82.031 20.1787 83.1687 21.5711C83.258 21.6913 83.2889 21.8727 83.1378 21.9934L81.2507 23.6582C81.1007 23.7801 80.9521 23.7498 80.8319 23.5987C80.1135 22.7821 79.364 22.3271 78.1644 22.3271C76.8774 22.3271 75.8883 22.9629 75.4696 24.234C75.2293 24.962 75.171 25.8084 75.171 26.9278C75.171 28.0472 75.2293 28.9245 75.4696 29.6513C75.8883 30.8909 76.8774 31.5267 78.1644 31.5267C79.364 31.5267 80.1135 31.0723 80.8319 30.2574C80.9521 30.104 81.1013 30.104 81.2507 30.2253L83.1378 31.8901C83.2889 32.0109 83.258 32.1625 83.1687 32.3142C82.031 33.6768 80.3222 34.5536 78.1644 34.5536C75.2597 34.5524 73.0435 33.1291 72.2043 30.5281Z" fill="#8A8A8A"/>
<path d="M147.857 34.2205C147.677 34.2205 147.558 34.1003 147.558 33.9172V25.505C147.558 23.6285 146.629 22.3265 144.83 22.3265C143.094 22.3265 142.075 23.6279 142.075 25.505V33.9172C142.075 34.0997 141.954 34.2205 141.776 34.2205H139.019C138.839 34.2205 138.719 34.1003 138.719 33.9172V25.505C138.719 23.6285 137.79 22.3265 135.994 22.3265C134.257 22.3265 133.237 23.6279 133.237 25.505V33.9172C133.237 34.0997 133.117 34.2205 132.937 34.2205H130.181C130 34.2205 129.882 34.1003 129.882 33.9172V19.936C129.882 19.754 130 19.6327 130.181 19.6327H132.937C133.117 19.6327 133.237 19.754 133.237 19.936V20.9953H133.267C133.897 20.0871 135.155 19.3008 137.071 19.3008C138.78 19.3008 140.157 19.9955 141.025 21.2368H141.056C142.164 20.0276 143.602 19.3008 145.67 19.3008C149.024 19.3008 150.913 21.6002 150.913 24.7175V33.9166C150.913 34.0997 150.792 34.2205 150.612 34.2205H147.857Z" fill="#8A8A8A"/>
<path d="M155.075 39.6657C154.896 39.6657 154.776 39.5444 154.776 39.3618V36.9416C154.776 36.7608 154.896 36.6377 155.075 36.6377H155.615C156.753 36.6377 157.324 36.1255 157.773 34.914L158.193 33.6732L152.919 19.9342C152.859 19.7522 152.979 19.6309 153.16 19.6309H156.125C156.304 19.6309 156.425 19.7522 156.483 19.9342L159.75 29.4669H159.809L162.925 19.9342C162.985 19.7522 163.105 19.6309 163.283 19.6309H166.129C166.311 19.6309 166.431 19.7522 166.369 19.9342L160.858 35.1257C159.6 38.5761 158.401 39.6646 156.005 39.6646L155.075 39.6657Z" fill="#8A8A8A"/>
<path d="M20.4706 30.5281C20.1411 29.4973 19.9912 28.5296 19.9912 26.926C19.9912 25.3248 20.1411 24.3559 20.4706 23.3292C21.2795 20.7871 23.4943 19.3037 26.4295 19.3037C29.3338 19.3037 31.5498 20.7865 32.3587 23.3292C32.6864 24.3559 32.8375 25.3248 32.8375 26.926C32.8375 28.5296 32.6864 29.4973 32.3587 30.5281C31.5492 33.0684 29.3338 34.5507 26.4295 34.5507C23.4943 34.5513 21.2795 33.069 20.4706 30.5281ZM29.1244 29.6204C29.3647 28.865 29.4241 28.1679 29.4241 26.9266C29.4241 25.6888 29.3647 25.0221 29.1244 24.2363C28.7056 23.0271 27.7767 22.3294 26.4295 22.3294C25.0829 22.3294 24.1231 23.0271 23.7049 24.2363C23.4663 25.0226 23.4058 25.6888 23.4058 26.9266C23.4058 28.1679 23.4663 28.865 23.7049 29.6204C24.1231 30.832 25.0835 31.5255 26.4295 31.5255C27.7767 31.525 28.7056 30.8314 29.1244 29.6204Z" fill="#8A8A8A"/>
<path d="M91.1954 19.3008C88.8283 19.3008 87.2414 19.8754 86.0721 20.7229C85.9538 20.8151 85.9229 20.9644 86.0139 21.1155L87.1195 23.114C87.2123 23.2656 87.3895 23.296 87.5406 23.1746C88.2299 22.631 89.2173 22.1754 90.8361 22.1754C93.1963 22.1754 93.9976 22.8917 94.0383 24.4661H94.0389V24.4854C94.04 24.5221 94.04 24.5595 94.04 24.5985V29.32C94.04 30.9842 92.9023 31.7997 90.8361 31.7997C89.2173 31.7997 88.3495 31.1959 88.3495 29.9861C88.3495 28.6235 89.3087 28.0168 91.4648 28.0168L92.1202 28.018C92.2999 28.018 92.4206 27.8967 92.4206 27.7164V25.7763C92.4206 25.5954 92.2999 25.4747 92.1202 25.4747H91.9763L90.9259 25.4741C87.3615 25.4741 85.1426 26.9289 85.1426 30.1045C85.1426 33.1618 87.3615 34.553 89.9964 34.553C92.0316 34.553 93.3805 33.8577 94.0698 32.859H94.099V33.9183C94.099 34.1003 94.2203 34.2217 94.3994 34.2217H96.9151C97.0954 34.2217 97.2154 34.1009 97.2154 33.9183V24.3856C97.216 20.8151 95.599 19.3008 91.1954 19.3008Z" fill="#8A8A8A"/>
<path d="M55.4049 25.4724C55.3267 25.4724 55.2754 25.5243 55.2754 25.6024V25.6888V25.9419V27.5449V27.7602V27.8844C55.2754 27.9626 55.3267 28.0151 55.4049 28.0151H55.4796H62.8229C63.0329 28.0151 63.153 27.8949 63.153 27.7147C63.153 25.3522 63.002 24.353 62.6737 23.3251C61.8637 20.8437 59.7076 19.3008 56.7415 19.3008C53.8659 19.3008 51.6498 20.783 50.8397 23.3251C50.5418 24.2631 50.3604 25.4135 50.3604 26.9266C50.3604 28.4397 50.5703 29.5586 50.8718 30.4977C51.6801 33.0387 53.8362 34.5518 56.8914 34.5518C59.5565 34.5518 61.5953 33.5228 62.8223 32.0704C62.9413 31.9199 62.9413 31.7688 62.792 31.6463L61.0262 30.0731C60.8751 29.9523 60.7258 29.9838 60.5754 30.1337C59.8575 30.9212 58.8089 31.5261 57.1911 31.5261C55.5751 31.5261 54.4356 30.7398 53.9562 29.3182C53.884 29.1193 53.8239 28.9105 53.786 28.6836H53.7854C53.6763 28.0676 53.6122 27.4679 53.6122 26.5871C53.6355 25.757 53.6833 25.2268 53.8012 24.553C53.8023 24.5437 53.8041 24.5355 53.8058 24.5268C53.807 24.5198 53.8082 24.5145 53.8093 24.5075V24.5081C53.8379 24.3495 53.877 24.2001 53.9254 24.0514C54.315 22.8713 55.3932 22.1754 56.7724 22.1754C58.1208 22.1754 59.1973 22.8713 59.5868 24.0514C59.7076 24.4165 59.7665 24.7776 59.7665 25.2933C59.7665 25.414 59.707 25.4735 59.5868 25.4735H55.651L55.6516 25.4729L55.4049 25.4724Z" fill="#8A8A8A"/>
<path d="M47.5787 13.6426H44.8273C44.6459 13.6426 44.5264 13.7633 44.5264 13.943V21.0135V26.8607C44.5264 26.8765 44.5264 26.8922 44.5264 26.9074C44.5264 26.9232 44.5264 26.9389 44.5264 26.9541V27.7305H44.5112C44.4791 28.5646 44.3887 29.113 44.2284 29.6269C43.8394 30.8344 42.9104 31.4988 41.5359 31.4988C40.1898 31.4988 39.2631 30.8344 38.8724 29.6269C38.6637 28.9613 38.575 28.2368 38.575 26.9074C38.575 25.5786 38.6637 24.8523 38.8724 24.1891C39.2556 23.0044 40.1525 22.3353 41.4542 22.309H42.6287C42.6859 22.295 42.7232 22.2501 42.7232 22.1848L42.7384 19.4222C42.7384 19.3516 42.694 19.3043 42.6287 19.2962L41.6909 19.2927H40.5887V19.2933C38.1773 19.3189 36.412 20.4949 35.6725 22.7961C35.3133 23.9155 35.1641 24.9445 35.1641 26.9074C35.1641 28.8709 35.3133 29.8987 35.6725 31.0158C36.4201 33.3432 38.2152 34.5216 40.6675 34.5216C42.613 34.5216 43.8096 33.7976 44.496 32.799H44.5252V33.8869C44.5252 34.0689 44.6454 34.1896 44.8261 34.1896H47.5775C47.7572 34.1896 47.8773 34.0695 47.8773 33.8869V13.943C47.8785 13.7627 47.7583 13.6426 47.5787 13.6426Z" fill="#8A8A8A"/>
<path d="M119.71 25.4724C119.633 25.4724 119.58 25.5243 119.58 25.6024V25.6888V25.9419V27.5449V27.7602V27.8844C119.58 27.9626 119.633 28.0151 119.71 28.0151H119.786H127.129C127.339 28.0151 127.459 27.8949 127.459 27.7147C127.459 25.3522 127.309 24.353 126.98 23.3251C126.17 20.8437 124.014 19.3008 121.048 19.3008C118.172 19.3008 115.957 20.783 115.146 23.3251C114.848 24.2631 114.667 25.4135 114.667 26.9266C114.667 28.4397 114.877 29.5586 115.178 30.4977C115.986 33.0387 118.142 34.5518 121.197 34.5518C123.863 34.5518 125.902 33.5228 127.129 32.0704C127.248 31.9199 127.248 31.7688 127.099 31.6463L125.332 30.0731C125.182 29.9523 125.032 29.9838 124.882 30.1337C124.165 30.9212 123.117 31.5261 121.497 31.5261C119.882 31.5261 118.743 30.7398 118.263 29.3182C118.191 29.1193 118.13 28.9105 118.093 28.6836C117.983 28.0676 117.919 27.4679 117.919 26.5871C117.941 25.757 117.989 25.2268 118.107 24.553C118.11 24.5437 118.111 24.5355 118.112 24.5268C118.113 24.5198 118.114 24.5145 118.116 24.5075V24.5081C118.145 24.3495 118.184 24.2001 118.232 24.0514C118.621 22.8713 119.7 22.1754 121.079 22.1754C122.428 22.1754 123.505 22.8713 123.894 24.0514C124.014 24.4165 124.074 24.7776 124.074 25.2933C124.074 25.414 124.014 25.4735 123.894 25.4735H119.958V25.4729L119.71 25.4724Z" fill="#8A8A8A"/>
<path d="M112.022 13.6426H109.266C109.086 13.6426 108.966 13.7639 108.966 13.9436V21.024V26.8806V26.9266V26.9739V27.7515H108.951C108.918 28.5868 108.827 29.1357 108.667 29.6502C108.277 30.86 107.347 31.5262 105.971 31.5262C104.624 31.5262 103.696 30.86 103.305 29.6502C103.096 28.9834 103.005 28.2584 103.005 26.9266C103.005 25.5961 103.095 24.8681 103.305 24.2043C103.688 23.0178 104.586 22.354 105.89 22.3277L107.067 22.3283C107.247 22.3283 107.367 22.2075 107.367 22.0273V19.6024C107.367 19.4216 107.247 19.3008 107.067 19.3008H106.923L105.144 19.3003C105.13 19.3003 105.116 19.3003 105.103 19.3003C105.089 19.3003 105.077 19.3003 105.064 19.3003H105.023V19.3008C102.609 19.3259 100.841 20.5042 100.1 22.809C99.7411 23.9301 99.5918 24.9597 99.5918 26.9255C99.5918 28.8919 99.7411 29.922 100.1 31.0408C100.849 33.3706 102.648 34.5513 105.103 34.5513C107.052 34.5513 108.249 33.8268 108.938 32.8264H108.967V33.9155C108.967 34.0986 109.087 34.2188 109.268 34.2188H112.024C112.203 34.2188 112.324 34.0992 112.324 33.9155V13.9436C112.322 13.7633 112.201 13.6426 112.022 13.6426Z" fill="#8A8A8A"/>
<path d="M71.9795 38.3457V41.1031C71.9795 41.2845 72.0996 41.4047 72.2798 41.4047H82.4948C82.6773 41.4047 82.798 41.2839 82.798 41.1031V38.3457C82.798 38.1666 82.6773 38.0459 82.4948 38.0459H72.2798C72.0996 38.0459 71.9795 38.1666 71.9795 38.3457Z" fill="#8A8A8A"/>
<path d="M69.3861 6.50171C69.3814 6.49705 69.3785 6.49121 69.3744 6.48713C69.3738 6.48655 69.3732 6.48655 69.3732 6.48655C69.3207 6.43463 69.2461 6.4043 69.1574 6.4043H69.1539H0.30092C0.278176 6.4043 0.256599 6.40663 0.235604 6.41013C0.229772 6.4113 0.224524 6.41363 0.218109 6.4148C0.204696 6.4183 0.190116 6.42121 0.177869 6.42646C0.175537 6.42705 0.173787 6.42821 0.172038 6.42938C0.065316 6.47313 0 6.57288 0 6.70471V6.70588V41.0988V41.1011C0 41.2061 0.0408226 41.2883 0.109637 41.3408C0.114886 41.3461 0.119552 41.3507 0.12655 41.3542V41.3548C0.17437 41.3852 0.232689 41.4015 0.30092 41.4015H69.1533H69.1568C69.2583 41.4015 69.3406 41.3624 69.3925 41.2953C69.4333 41.2452 69.4572 41.1792 69.4572 41.1005V41.0982V6.70588V6.70471C69.4572 6.62246 69.431 6.55304 69.3861 6.50171ZM3.6542 38.0445C3.63262 38.0445 3.61162 38.0427 3.59297 38.0398C3.58713 38.0386 3.58072 38.0357 3.57489 38.034C3.5609 38.031 3.5469 38.0281 3.53406 38.0229C3.53173 38.0223 3.53056 38.0205 3.52823 38.02C3.42209 37.9768 3.35736 37.8776 3.35678 37.747V12.818V10.0617C3.35678 9.9293 3.42209 9.8308 3.52823 9.7864C3.53115 9.7858 3.5329 9.7841 3.53465 9.7835C3.5469 9.7788 3.58655 9.7689 3.59297 9.7672C3.61279 9.7643 3.63379 9.7625 3.65536 9.7625H65.8013C65.8234 9.7625 65.8439 9.7643 65.8637 9.7672C65.8701 9.7689 65.8759 9.7713 65.8812 9.773C65.8951 9.7759 65.9091 9.7788 65.9219 9.7841C65.9248 9.7847 65.926 9.7864 65.9283 9.787C66.0351 9.8308 66.0998 9.9299 66.0998 10.0623V37.7475C66.0993 37.8788 66.0339 37.978 65.9289 38.0211C65.9267 38.0217 65.9254 38.0235 65.9225 38.024C65.9104 38.0287 65.8958 38.0322 65.8824 38.0351C65.8759 38.0369 65.8707 38.0398 65.8643 38.041C65.8444 38.0445 65.8252 38.0456 65.8036 38.0456H3.6542V38.0445Z" fill="#8A8A8A"/>
</g>
<defs>
<clipPath id="clip0_110_6933">
<rect width="166.958" height="48" fill="white"/>
</clipPath>
</defs>
</svg>
