<svg width="180" height="48" viewBox="0 0 180 48" fill="none" xmlns="http://www.w3.org/2000/svg">
<g clip-path="url(#clip0_110_6952)">
<path fill-rule="evenodd" clip-rule="evenodd" d="M54.5279 34.3793C53.8692 34.1282 53.4379 33.5963 53.4379 32.8871C53.4379 32.0288 54.1468 31.3211 55.0094 31.3211C55.2635 31.3211 55.4673 31.3713 55.6446 31.4467C56.8209 31.9892 58.1024 32.2657 59.3977 32.2563C62.0372 32.2563 63.2794 30.9931 63.2794 28.5642V27.9068C62.1377 29.2734 60.8955 30.1081 58.8409 30.1081C55.6697 30.1081 52.8027 27.8063 52.8027 23.7848V23.736C52.8027 19.6894 55.7199 17.4142 58.8409 17.4142C60.9457 17.4142 62.1879 18.3006 63.2277 19.4382V19.4116C63.2277 18.3745 64.0903 17.5161 65.1567 17.5161C66.2202 17.5161 67.0828 18.3745 67.0828 19.4367V28.1609C67.0828 30.5883 66.5009 32.3568 65.3591 33.4944C64.0903 34.7605 62.1377 35.316 59.4997 35.316C57.7972 35.331 56.1083 35.0128 54.5279 34.3793ZM63.2794 23.7863V23.736C63.2794 21.8893 61.8319 20.5995 59.9561 20.5995C58.0802 20.5995 56.6593 21.8893 56.6593 23.736V23.7863C56.6593 25.6567 58.0802 26.9213 59.9561 26.9213C61.8319 26.9213 63.2794 25.6316 63.2794 23.7863ZM69.2659 19.4367C69.2659 18.3745 70.1285 17.5161 71.1934 17.5161C72.2599 17.5161 73.121 18.3745 73.121 19.4367V20.0425C73.6793 18.7291 74.5921 17.5161 75.7354 17.5161C76.9273 17.5161 77.6112 18.2991 77.6112 19.3865C77.6112 20.3971 76.9524 21.0043 76.1652 21.1816C74.2125 21.6381 73.1225 23.1288 73.1225 25.8591V29.4492C73.1225 30.5115 72.2599 31.3713 71.1934 31.3713C70.9408 31.3719 70.6905 31.3227 70.4568 31.2264C70.2232 31.1302 70.0108 30.9889 69.8318 30.8105C69.6528 30.6322 69.5106 30.4202 69.4135 30.1869C69.3165 29.9536 69.2663 29.7034 69.2659 29.4507V19.4367ZM77.1548 27.3262V27.2759C77.1548 24.3167 79.4117 22.9515 82.6346 22.9515C84.0039 22.9515 84.9935 23.179 85.958 23.507V23.2795C85.958 21.6883 84.9684 20.8019 83.0408 20.8019C82.1385 20.7922 81.24 20.9203 80.3762 21.1816C80.1979 21.2477 80.0095 21.2822 79.8194 21.2835C79.6109 21.2874 79.4038 21.2498 79.21 21.1727C79.0163 21.0956 78.8399 20.9806 78.6911 20.8345C78.5423 20.6885 78.4241 20.5142 78.3434 20.3218C78.2627 20.1295 78.2212 19.9231 78.2212 19.7145C78.2212 19.0319 78.6496 18.4513 79.2611 18.2223C80.4781 17.7673 81.7972 17.5161 83.5977 17.5161C85.7025 17.5161 87.2253 18.0716 88.1883 19.0319C89.2031 20.0425 89.6609 21.5362 89.6609 23.3563V29.5245C89.6609 30.5617 88.8235 31.3713 87.7836 31.3713C86.667 31.3713 85.9314 30.5883 85.9314 29.7787V29.7521C84.9935 30.7892 83.7011 31.4718 81.8223 31.4718C79.2611 31.4718 77.1548 30.0062 77.1548 27.3262ZM86.0082 26.4397V25.7586C85.2329 25.4178 84.3943 25.2451 83.5475 25.2519C81.8976 25.2519 80.8843 25.9093 80.8843 27.1237V27.174C80.8843 28.2111 81.7469 28.8183 82.9891 28.8183C84.7911 28.8183 86.0082 27.8314 86.0082 26.4397ZM91.7155 19.4367C91.7155 18.3745 92.5781 17.5161 93.6445 17.5161C94.7095 17.5161 95.5721 18.3745 95.5721 19.4367V19.5889C96.4583 18.4513 97.6267 17.4142 99.5793 17.4142C101.355 17.4142 102.699 18.1972 103.409 19.5638C104.601 18.1736 106.024 17.4142 107.873 17.4142C110.74 17.4142 112.467 19.1339 112.467 22.396V29.4492C112.467 30.5115 111.602 31.3713 110.538 31.3713C110.285 31.3719 110.034 31.3227 109.801 31.2265C109.567 31.1303 109.354 30.989 109.175 30.8106C108.996 30.6323 108.854 30.4204 108.757 30.187C108.659 29.9537 108.609 29.7035 108.608 29.4507V23.6592C108.608 21.839 107.796 20.9038 106.352 20.9038C104.906 20.9038 104.018 21.839 104.018 23.6592V29.4507C104.018 30.5115 103.157 31.3713 102.09 31.3713C101.58 31.3721 101.09 31.1702 100.729 30.8101C100.368 30.4499 100.164 29.961 100.163 29.4507V23.6592C100.163 21.839 99.3504 20.9038 97.9058 20.9038C96.4583 20.9038 95.5721 21.839 95.5721 23.6592V29.4507C95.5721 30.5115 94.7095 31.3713 93.6445 31.3713C93.3917 31.3721 93.1413 31.323 92.9075 31.2269C92.6736 31.1307 92.4611 30.9894 92.2819 30.811C92.1027 30.6327 91.9605 30.4207 91.8633 30.1873C91.7661 29.9538 91.7159 29.7035 91.7155 29.4507V19.4367ZM114.546 19.4367C114.546 18.3745 115.409 17.5161 116.474 17.5161C117.54 17.5161 118.403 18.3745 118.403 19.4367V19.5889C119.289 18.4513 120.456 17.4142 122.41 17.4142C124.185 17.4142 125.53 18.1972 126.24 19.5638C127.432 18.1736 128.853 17.4142 130.704 17.4142C133.571 17.4142 135.296 19.1339 135.296 22.396V29.4492C135.296 30.5115 134.433 31.3713 133.367 31.3713C132.857 31.3721 132.367 31.1702 132.006 30.8101C131.644 30.4499 131.44 29.961 131.439 29.4507V23.6592C131.439 21.839 130.627 20.9038 129.182 20.9038C127.735 20.9038 126.849 21.839 126.849 23.6592V29.4507C126.849 30.5115 125.986 31.3713 124.921 31.3713C124.668 31.3719 124.418 31.3227 124.184 31.2264C123.951 31.1302 123.738 30.9889 123.559 30.8105C123.38 30.6322 123.238 30.4202 123.141 30.1869C123.044 29.9536 122.994 29.7034 122.993 29.4507V23.6592C122.993 21.839 122.181 20.9038 120.735 20.9038C119.289 20.9038 118.401 21.839 118.401 23.6592V29.4507C118.401 30.5115 117.54 31.3713 116.474 31.3713C116.221 31.3719 115.971 31.3227 115.737 31.2264C115.503 31.1302 115.291 30.9889 115.112 30.8105C114.933 30.6322 114.791 30.4202 114.694 30.1869C114.597 29.9536 114.547 29.7034 114.546 29.4507V19.4367ZM136.565 27.3262V27.2759C136.565 24.3167 138.823 22.9515 142.044 22.9515C143.176 22.9413 144.3 23.1293 145.366 23.507V23.2795C145.366 21.6883 144.377 20.8019 142.449 20.8019C141.384 20.8019 140.522 20.9541 139.786 21.1816C139.608 21.2477 139.419 21.2822 139.229 21.2835C139.021 21.2878 138.813 21.2504 138.619 21.1735C138.425 21.0966 138.248 20.9817 138.099 20.8355C137.95 20.6894 137.832 20.5149 137.751 20.3224C137.671 20.1299 137.629 19.9232 137.63 19.7145C137.63 19.0319 138.062 18.4513 138.669 18.2223C139.888 17.7673 141.207 17.5161 143.007 17.5161C145.114 17.5161 146.635 18.0716 147.598 19.0319C148.613 20.0425 149.069 21.5362 149.069 23.3563V29.5245C149.069 29.7696 149.021 30.0122 148.926 30.2382C148.831 30.4642 148.693 30.6691 148.518 30.841C148.343 31.0128 148.136 31.1483 147.909 31.2393C147.682 31.3304 147.438 31.3752 147.193 31.3713C146.077 31.3713 145.341 30.5883 145.341 29.7787V29.7521C144.403 30.7892 143.108 31.4718 141.232 31.4718C138.669 31.4718 136.565 30.0062 136.565 27.3262ZM145.418 26.4397V25.7586C144.643 25.4179 143.804 25.2452 142.957 25.2519C141.307 25.2519 140.294 25.9093 140.294 27.1237V27.174C140.294 28.2111 141.155 28.8183 142.399 28.8183C144.199 28.8183 145.418 27.8314 145.418 26.4397ZM151.125 19.4367C151.125 18.3745 151.988 17.5161 153.053 17.5161C154.119 17.5161 154.98 18.3745 154.98 19.4367V20.0425C155.539 18.7291 156.451 17.5161 157.595 17.5161C158.785 17.5161 159.471 18.2991 159.471 19.3865C159.471 20.3971 158.81 21.0043 158.025 21.1816C156.072 21.6381 154.98 23.1288 154.98 25.8591V29.4492C154.98 30.5115 154.119 31.3713 153.053 31.3713C152.543 31.3721 152.053 31.1702 151.692 30.8101C151.33 30.4499 151.126 29.961 151.125 29.4507V19.4367ZM160.637 14.5317C160.637 13.468 161.5 12.6111 162.565 12.6111C163.631 12.6111 164.494 13.468 164.494 14.5317V29.4492C164.494 30.5115 163.631 31.3713 162.565 31.3713C162.055 31.3721 161.565 31.1702 161.204 30.8101C160.842 30.4499 160.639 29.961 160.637 29.4507V14.5302V14.5317ZM167.563 34.9866C167.005 34.7856 166.345 34.3291 166.345 33.3954C166.34 33.192 166.377 32.9898 166.451 32.8005C166.525 32.6112 166.637 32.4385 166.778 32.2926C166.92 32.1466 167.089 32.0302 167.276 31.9502C167.463 31.8702 167.664 31.8281 167.868 31.8264C168.172 31.8264 168.349 31.8766 168.501 31.9283C168.831 32.0288 169.034 32.0805 169.314 32.0805C169.997 32.0805 170.328 31.9534 170.683 31.2709L170.81 30.9665L166.169 20.2464C166.053 19.9641 165.984 19.6646 165.965 19.3599C165.965 18.274 166.803 17.5161 167.868 17.5161C168.831 17.5161 169.389 18.0465 169.718 18.9566L172.662 26.846L175.502 18.9817C175.807 18.1736 176.364 17.5161 177.355 17.5161C178.343 17.5161 179.179 18.274 179.179 19.2861C179.179 19.5889 179.078 20.0189 179.003 20.1961L174.259 31.5486C173.117 34.304 171.977 35.3411 169.668 35.3411C168.806 35.3411 168.197 35.2156 167.563 34.9866Z" fill="#8A8A8A"/>
<path fill-rule="evenodd" clip-rule="evenodd" d="M42.1342 24.428C42.1342 36.0257 32.7018 45.428 21.0671 45.428C9.43242 45.428 0 36.0257 0 24.428C0 12.8303 9.43242 3.42798 21.0671 3.42798C32.7018 3.42798 42.1342 12.8303 42.1342 24.428Z" fill="#8A8A8A"/>
<path fill-rule="evenodd" clip-rule="evenodd" d="M23.8214 28.963C23.9455 29.65 24.5939 30.1213 25.2955 30.1213H27.5022L28.7813 29.944C26.7342 32.9372 23.1804 34.3142 19.2943 33.707C16.1305 33.212 13.4127 31.0772 12.265 28.0972C9.66247 21.3321 14.618 14.8743 21.0771 14.8743C24.4433 14.8743 27.3944 16.8378 29.0871 19.2091C29.5361 19.8547 30.4283 20.0911 31.0767 19.6434C31.3712 19.4439 31.579 19.1399 31.658 18.7929C31.737 18.4459 31.6812 18.0819 31.5021 17.7745C30.3024 15.9057 28.6221 14.3943 26.6374 13.3987C24.6527 12.4031 22.4367 11.9601 20.2219 12.116C14.0626 12.5282 9.07756 17.5529 8.72307 23.696C8.31245 30.8467 14.0006 36.6825 21.0771 36.6825C22.8415 36.6898 24.5868 36.3162 26.1937 35.5872C27.8006 34.8583 29.2314 33.7911 30.3884 32.4585L30.1196 33.9566V35.31C30.1196 36.0073 30.5922 36.6544 31.282 36.7785C31.4879 36.8173 31.6999 36.8103 31.9028 36.758C32.1057 36.7057 32.2947 36.6094 32.4562 36.4758C32.6178 36.3423 32.7479 36.1749 32.8375 35.9854C32.9272 35.7959 32.974 35.589 32.9747 35.3794V27.2743H25.2246C25.015 27.274 24.8078 27.3199 24.618 27.4088C24.4281 27.4977 24.2602 27.6274 24.1262 27.7887C23.9922 27.95 23.8954 28.1388 23.8427 28.3418C23.79 28.5448 23.7828 28.7569 23.8214 28.963Z" fill="#FBFBFB"/>
</g>
<defs>
<clipPath id="clip0_110_6952">
<rect width="179.955" height="48" fill="white"/>
</clipPath>
</defs>
</svg>
