<svg width="49" height="50" viewBox="0 0 49 50" fill="none" xmlns="http://www.w3.org/2000/svg">
<path d="M24.1152 4.9043C13.0163 4.9043 4.01953 13.9011 4.01953 24.9999C4.01953 36.0987 13.0163 45.0955 24.1152 45.0955C35.214 45.0955 44.2108 36.0987 44.2108 24.9999C44.2108 13.9011 35.214 4.9043 24.1152 4.9043ZM24.515 32.761L21.1651 36.1109C21.0264 36.2496 20.8598 36.3598 20.6769 36.4362C20.494 36.5125 20.2969 36.5529 20.1 36.5529C19.903 36.5529 19.7084 36.5125 19.5235 36.4362C19.3386 36.3598 19.1735 36.2496 19.0348 36.1109L15.6849 32.761C15.0961 32.1742 15.0961 31.2176 15.6849 30.6288C16.2737 30.0399 17.2283 30.0399 17.8171 30.6288L18.5947 31.4044V18.9653C18.5947 18.1334 19.27 17.4582 20.1019 17.4582C20.9339 17.4582 21.6091 18.1334 21.6091 18.9653V31.4044L22.3867 30.6288C22.9775 30.0399 23.9321 30.042 24.5189 30.6288C25.1037 31.2176 25.1038 32.1722 24.515 32.761ZM32.5454 19.3632C32.252 19.6566 31.8661 19.8053 31.4803 19.8053C31.0944 19.8053 30.7085 19.6586 30.4151 19.3632L29.6375 18.5876V31.0266C29.6375 31.8586 28.9623 32.5338 28.1304 32.5338C27.2984 32.5338 26.6232 31.8586 26.6232 31.0266V18.5876L25.8456 19.3632C25.2547 19.954 24.3001 19.95 23.7133 19.3632C23.1245 18.7744 23.1245 17.8198 23.7133 17.231L27.0633 13.8811C27.2019 13.7424 27.3685 13.6317 27.5534 13.5553C27.9211 13.4026 28.3371 13.4026 28.7049 13.5553C28.8897 13.6317 29.0568 13.7424 29.1955 13.8811L32.5454 17.231C33.1342 17.8198 33.1342 18.7744 32.5454 19.3632Z" fill="#1C3DCE"/>
</svg>
