<svg width="75" height="69" viewBox="0 0 75 69" fill="none" xmlns="http://www.w3.org/2000/svg">
<path d="M34.502 0C46.0494 0 56.6098 5.72237 62.9727 15.0059L62.9844 15.0225H70.5596C72.5847 15.0226 74.2301 16.6483 74.2627 18.665V18.7314C74.2499 27.8943 72.5013 34.6814 68.7441 39.0186L68.7031 39.0645L68.668 39.334C66.3284 56.0307 52.1056 68.7359 35.0361 68.9961L34.502 69C15.4471 68.9999 4.10766e-07 53.5538 0 34.5C0 15.4462 15.4471 0.000128485 34.502 0ZM34.502 7.40723C19.5375 7.40723 7.40625 19.5369 7.40625 34.5C7.40626 49.4631 19.5375 61.5928 34.502 61.5928C48.5119 61.5926 60.1792 50.9122 61.4775 37.0664C61.561 36.1761 61.9636 35.346 62.6113 34.7295C64.8536 32.5952 66.2897 28.5778 66.7197 22.624L66.7334 22.4297H60.959C59.6809 22.4296 58.4951 21.7701 57.8193 20.6895L57.7803 20.626C52.9189 12.4907 44.1529 7.40733 34.502 7.40723Z" fill="white"/>
<ellipse cx="34.5019" cy="34.5" rx="30.7988" ry="30.7966" fill="#FFBD4F"/>
<path d="M34.5 46.5182C34.5 46.5182 42.6563 53.2785 50.6506 46.5182" stroke="#312A46" stroke-width="1.32203" stroke-linecap="round"/>
<path fill-rule="evenodd" clip-rule="evenodd" d="M13.0938 18.7261L42.0146 18.7261C42.0146 18.7261 41.9842 40.5091 28.1488 40.5091C14.3134 40.5091 13.0938 18.7261 13.0938 18.7261Z" fill="#312A46"/>
<path fill-rule="evenodd" clip-rule="evenodd" d="M41.6348 18.7261L70.5556 18.7261C70.5556 18.7261 70.5252 40.5091 56.6898 40.5091C42.8544 40.5091 41.6348 18.7261 41.6348 18.7261Z" fill="#312A46"/>
</svg>
