<svg width="81" height="86" viewBox="0 0 81 86" fill="none" xmlns="http://www.w3.org/2000/svg">
<path d="M60.3713 83.6148C58.2692 79.8162 57.2168 75.0861 58.1166 70.7845C58.1457 70.6658 58.1314 70.5407 58.0764 70.4316C58.0213 70.3224 57.9291 70.2366 57.8164 70.1895C57.7177 70.1576 57.6108 70.1622 57.5152 70.2023C57.4196 70.2425 57.3414 70.3155 57.2951 70.4083C55.166 73.7619 55.1344 77.6828 57.1301 80.3777C39.3899 56.4407 59.3384 55.5641 76.1337 45.0406C79.3408 43.2546 82.6984 38.7113 79.2437 35.445C70.6982 28.1387 25.8845 59.7826 23.6908 52.1164C22.5814 48.2366 47.0243 36.717 61.5149 28.2972C65.6158 25.9189 65.2037 21.2058 61.3666 19.493C58.2104 18.298 55.041 19.7823 52.0862 20.6413C44.8066 22.4191 18.6654 35.9308 7.41491 38.0423C2.83399 38.9002 3.23886 35.7627 5.74721 34.3779C18.8909 27.1059 41.325 16.6043 52.9608 9.87216C56.8783 7.95309 59.312 4.9494 58.8901 2.90496C56.9329 -6.17487 14.6615 17.8826 20.8026 2.71139C20.8418 2.61637 20.8423 2.50982 20.8041 2.41442C20.7658 2.31902 20.6919 2.24232 20.5979 2.20064C20.4281 2.1292 20.237 2.12701 20.0656 2.19453C19.8941 2.26205 19.7559 2.39393 19.6803 2.56201C11.7691 20.3624 55.3522 -1.41932 56.1752 3.26755C56.5191 5.21879 44.6557 11.4561 36.4652 15.456C30.3698 18.4342 7.22823 29.3635 3.46211 32.1515C-3.31024 37.1587 2.09428 42.1182 7.49429 41.4566C20.4803 39.8345 47.1494 24.506 56.958 23.6168C59.4493 23.3891 58.484 24.7066 57.6695 25.2898C50.3002 30.5496 24.6711 41.3115 19.9339 47.7347C18.493 49.6941 17.7355 52.3778 19.0261 54.6907C24.2221 61.9774 37.4984 53.8213 43.8186 51.5513C46.6019 50.5888 66.6666 39.9264 73.775 38.5708C75.4177 38.2544 77.5466 39.2521 75.0235 40.9315C56.9023 53.0208 34.8961 55.0812 55.0187 79.3535C51.6865 77.7571 49.0719 77.084 44.174 78.0665C44.1212 78.0789 44.0716 78.1021 44.0282 78.1346C43.9848 78.1671 43.9486 78.2082 43.9218 78.2553C43.895 78.3024 43.8782 78.3545 43.8724 78.4083C43.8667 78.4622 43.872 78.5167 43.8883 78.5684C43.9051 78.6398 43.9415 78.7051 43.9934 78.757C44.0453 78.8088 44.1107 78.8452 44.1821 78.8619C50.9154 79.6083 54.4101 81.273 58.1701 85.0567C59.7419 86.6137 61.3302 85.3839 60.3713 83.6148Z" fill="#FD84B0"/>
</svg>
