<svg width="106" height="105" viewBox="0 0 106 105" fill="none" xmlns="http://www.w3.org/2000/svg">
<path d="M43.212 21.3337C33.3573 24.9205 26.0377 32.944 23.1779 42.7519L23.1356 42.9013L23.0829 42.9164C19.8783 43.8742 17.4852 46.5122 17.0767 50.4015L17.0615 50.5598C16.6771 54.812 19.0492 59.2398 23.5685 62.3188L23.5925 62.3361L23.6291 62.4454C23.6652 62.551 23.702 62.6564 23.7391 62.7618L23.8522 63.0781C30.0098 79.9959 48.6611 88.7475 65.5158 82.6129C82.3703 76.4782 91.0319 57.7856 84.8744 40.8679C78.7167 23.9504 60.0665 15.1994 43.212 21.3337ZM45.8993 28.7142C58.6697 24.0662 72.818 30.7055 77.4948 43.5549C82.1715 56.4042 75.6006 70.5836 62.8303 75.2317C50.0599 79.8798 35.912 73.2413 31.2352 60.392C31.0304 59.8295 30.8464 59.2638 30.6847 58.6968C30.4018 57.7056 29.7406 56.8652 28.8438 56.3572C27.2369 55.4469 26.131 54.3944 25.4855 53.3093C25.017 52.5216 24.8384 51.7904 24.8857 51.2673C24.956 50.4899 25.1859 50.3216 26.0749 50.3772C28.0453 50.5002 29.801 49.1405 30.1757 47.2021C31.8104 38.7449 37.6937 31.7008 45.8993 28.7142Z" fill="white"/>
<ellipse cx="28.5418" cy="28.6787" rx="28.5418" ry="28.6787" transform="matrix(-0.939693 0.34202 0.34202 0.939693 71.377 15.2623)" fill="#FFBD4F"/>
<ellipse cx="3.44019" cy="4.5348" rx="3.44019" ry="4.5348" transform="matrix(-0.939693 0.34202 0.34202 0.939693 51.4102 57.0757)" fill="#312A46"/>
<path fill-rule="evenodd" clip-rule="evenodd" d="M46.2846 41.7001C46.8025 35.9715 53.8168 36.2891 56.4379 39.621C57.0405 34.938 59.2085 32.7203 62.942 32.9678C68.5422 33.3392 69.4567 40.5817 67.4114 45.2475C66.0479 48.3581 63.972 51.2954 61.4681 53.4413C49.4715 51.7771 45.9393 45.5193 46.2846 41.7001Z" fill="#F27A5F"/>
<path fill-rule="evenodd" clip-rule="evenodd" d="M20.974 50.9135C21.492 45.1848 28.5063 45.5025 31.1274 48.8344C31.7299 44.1514 33.898 41.9336 37.6314 42.1812C43.2317 42.5526 44.1462 49.795 42.1009 54.4609C40.7373 57.5714 38.6615 60.5088 36.1575 62.6547C24.161 60.9905 20.6288 54.7326 20.974 50.9135Z" fill="#F27A5F"/>
</svg>
