<svg width="112" height="84" viewBox="0 0 112 84" fill="none" xmlns="http://www.w3.org/2000/svg">
<path d="M0.792416 14.6797C1.67728 12.1724 2.14278 9.53639 2.17021 6.87769C8.62901 23.1218 15.6564 16.5447 24.5516 6.89469C25.7845 5.73143 29.2597 2.55148 29.686 5.76283C27.3188 16.9479 17.5345 25.2566 14.8507 36.5825C14.2782 38.2192 14.2284 39.9934 14.708 41.6598C15.1877 43.3261 16.1732 44.8022 17.5283 45.8842C18.8834 46.9661 20.5411 47.6003 22.2723 47.6991C24.0035 47.798 25.7226 47.3565 27.192 46.4359C35.5183 41.3461 40.3184 32.557 47.398 26.2263C58.2443 14.1415 75.9086 18.7577 75.058 36.0992C66.0768 37.1417 49.6783 45.3724 56.5578 56.3333C67.4894 65.6952 78.5838 48.503 79.0337 38.403C104.396 37.4074 112.054 62.7418 110.707 83.8336L111.28 83.8829C113.677 61.8923 105.42 35.5897 79.2452 35.8155C80.7093 20.8444 65.7439 9.35983 51.9992 16.5536C41.838 21.6486 35.6204 31.3896 27.565 38.838C25.6391 40.4373 22.4803 43.3177 20.5609 40.6314C19.7992 35.6475 23.6465 30.4008 25.7685 25.8322C28.7342 20.1628 32.3809 14.7537 33.9195 8.37902C35.481 3.58131 30.9475 -1.89446 25.9913 0.878311C16.5512 6.72316 12.3086 24.3558 3.03814 6.31526C5.09717 8.07185 8.23826 9.44794 10.8927 8.2567L10.8432 8.04143C7.34833 7.4132 5.17418 4.88067 2.37642 3.02662C2.13726 2.85062 1.84846 2.75493 1.55152 2.75328C1.25458 2.75163 0.964765 2.84411 0.723657 3.01745C0.482549 3.19078 0.302552 3.43605 0.209525 3.71805C0.116497 4.00004 0.115207 4.30425 0.205842 4.58702C1.07718 7.84103 1.01196 11.2607 0.546423 14.5957L0.792416 14.6797ZM73.3076 45.1384C62.4911 69.0534 45.0352 45.684 74.8481 38.8903C74.5741 41.0249 74.0572 43.1211 73.3076 45.1384ZM1.94331 4.11915C1.93538 4.08471 1.93405 4.09861 1.94331 4.11915V4.11915Z" fill="url(#paint0_linear_81_4632)"/>
<defs>
<linearGradient id="paint0_linear_81_4632" x1="119.852" y1="89.0233" x2="-30.7031" y2="12.3746" gradientUnits="userSpaceOnUse">
<stop offset="0.0309329" stop-color="#52FCF1" stop-opacity="0.512797"/>
<stop offset="0.0482157" stop-color="#FD80F0" stop-opacity="0.29632"/>
<stop offset="0.393871" stop-color="#755FF3"/>
<stop offset="0.570403" stop-color="#9453F5" stop-opacity="0.815469"/>
<stop offset="0.937044" stop-color="#FC9BFE" stop-opacity="0"/>
</linearGradient>
</defs>
</svg>
