<svg width="95" height="89" viewBox="0 0 95 89" fill="none" xmlns="http://www.w3.org/2000/svg">
<path d="M79.0596 32.4941C77.2907 36.854 74.3839 40.6714 71.9712 44.7352C71.9215 44.822 71.9066 44.9245 71.9293 45.0219C71.9521 45.1194 72.0108 45.2046 72.0939 45.2605C72.2283 45.348 72.3856 45.3937 72.546 45.3917C72.7064 45.3897 72.8625 45.3402 72.9947 45.2494C74.6775 44.0941 78.091 40.8427 78.5955 37.7133C76.085 53.284 70.3581 86.205 48.7682 69.0405C40.0719 63.0361 32.3747 55.3617 24.6198 48.0541C14.6849 37.9388 4.3171 29.86 2.87981 49.8008C2.86523 50.0197 2.92621 50.237 3.05255 50.4163C3.1789 50.5957 3.36295 50.7262 3.57397 50.7862C3.63361 50.802 3.69593 50.8051 3.75684 50.7952C3.81775 50.7852 3.87588 50.7625 3.92739 50.7285C3.97891 50.6945 4.02267 50.6501 4.05577 50.598C4.08888 50.5459 4.11059 50.4874 4.1195 50.4263C6.87713 31.9434 13.8898 41.147 22.0951 50.497C31.2357 60.4944 40.3858 71.4748 52.4886 78.5966C76.2863 90.9208 83.8731 54.4439 79.8557 37.6583C80.6728 40.5414 84.296 43.7662 85.7324 44.1376C85.8847 44.1931 86.051 44.197 86.2057 44.1487C86.3604 44.1005 86.4949 44.0027 86.5886 43.8705C86.6432 43.7803 86.6692 43.6756 86.6629 43.5703C86.6567 43.465 86.6186 43.3641 86.5537 43.2809C84.2373 40.3386 82.68 36.8718 82.0191 33.1859C81.4492 30.3291 79.6545 31.0209 79.0596 32.4941Z" fill="#53DEFD"/>
<path d="M45.6515 59.5967C50.6515 67.0235 61.0112 70.5996 64.4316 64.5456C64.4535 64.5046 64.4609 64.4574 64.4527 64.4116C64.4445 64.3658 64.4211 64.3242 64.3863 64.2933C64.3516 64.2625 64.3074 64.2442 64.261 64.2415C64.2145 64.2388 64.1686 64.2518 64.1305 64.2785C60.294 66.8835 52.8229 65.7717 46.1191 59.2169C46.0672 59.1599 45.9955 59.1248 45.9186 59.119C45.8417 59.1132 45.7655 59.137 45.7057 59.1856C45.6458 59.2342 45.6069 59.3039 45.5968 59.3804C45.5867 59.4568 45.6063 59.5342 45.6515 59.5967Z" fill="#53DEFD"/>
<path d="M42.0041 55.0958C42.4224 55.2381 42.8066 55.4655 43.1326 55.7636C43.4587 56.0617 43.7194 56.4241 43.8985 56.828C43.9246 56.8924 43.9318 56.963 43.9194 57.0315C43.9069 57.0999 43.8752 57.1633 43.828 57.2144C43.7808 57.2655 43.72 57.3022 43.6528 57.3201C43.5856 57.3379 43.5147 57.3363 43.4483 57.3154C43.0308 57.1738 42.6472 56.9469 42.322 56.6493C41.9968 56.3516 41.737 55.9896 41.559 55.5862C41.5327 55.5221 41.525 55.4518 41.537 55.3835C41.549 55.3152 41.5801 55.2517 41.6267 55.2004C41.6732 55.1491 41.7334 55.112 41.8003 55.0934C41.8671 55.0749 41.9378 55.0757 42.0041 55.0958Z" fill="#53DEFD"/>
</svg>
